<?xml version="1.0" encoding="utf-8"?>
<!-- Generator: Adobe Illustrator 16.0.0, SVG Export Plug-In . SVG Version: 6.00 Build 0)  -->
<!DOCTYPE svg PUBLIC "-//W3C//DTD SVG 1.1//EN" "http://www.w3.org/Graphics/SVG/1.1/DTD/svg11.dtd">
<svg version="1.1" id="Capa_1" xmlns="http://www.w3.org/2000/svg" xmlns:xlink="http://www.w3.org/1999/xlink" x="0px" y="0px"
	 width="418.5px" height="246.797px" viewBox="93.5 130.5 418.5 246.797" enable-background="new 93.5 130.5 418.5 246.797"
	 xml:space="preserve">
<g>
	<g>
		<path fill="#FFFFFF" d="M126.992,133.712c-16.532,0-29.962,13.416-29.962,29.962c0,6.693,2.293,12.804,6.007,17.791V171.35
			c0-13.203,10.745-23.95,23.955-23.95c13.222,0,23.967,10.748,23.967,23.95v10.105c3.714-4.986,5.998-11.099,5.998-17.788
			C156.957,147.129,143.551,133.712,126.992,133.712z"/>
		<path fill="#FFFFFF" d="M126.992,361.451c9.473,0,17.125-7.667,17.125-17.115V170.209c0-9.454-7.652-17.12-17.125-17.12
			c-9.46,0-17.108,7.665-17.108,17.12v174.129C109.892,353.784,117.541,361.451,126.992,361.451z"/>
		<path fill="#FFFFFF" d="M97.04,346.328c0,16.541,13.42,29.969,29.962,29.969c16.549,0,29.964-13.419,29.964-29.969
			c0-6.688-2.285-12.822-5.997-17.807v13.236c0,13.229-10.745,23.975-23.967,23.975c-13.209,0-23.954-10.746-23.954-23.975v-13.236
			C99.334,333.506,97.04,339.64,97.04,346.328z"/>
		<path fill="#FFFFFF" d="M226.036,133.712c-16.534,0-29.962,13.416-29.962,29.962c0,6.693,2.293,12.804,6.005,17.791V171.35
			c0-13.203,10.745-23.95,23.957-23.95c13.219,0,23.963,10.748,23.963,23.95v10.105c3.714-4.986,5.999-11.099,5.999-17.788
			C255.998,147.129,242.584,133.712,226.036,133.712z"/>
		<path fill="#FFFFFF" d="M226.036,361.451c9.461,0,17.122-7.667,17.122-17.115V170.209c0-9.454-7.652-17.12-17.122-17.12
			c-9.463,0-17.11,7.665-17.11,17.12v174.129C208.926,353.784,216.573,361.451,226.036,361.451z"/>
		<path fill="#FFFFFF" d="M196.074,346.328c0,16.541,13.413,29.969,29.962,29.969s29.962-13.419,29.962-29.969
			c0-6.688-2.285-12.822-5.999-17.807v13.236c0,13.229-10.744,23.975-23.963,23.975c-13.212,0-23.957-10.746-23.957-23.975v-13.236
			C198.367,333.506,196.074,339.64,196.074,346.328z"/>
		<path fill="#FFFFFF" d="M325.073,133.712c-16.541,0-29.969,13.416-29.969,29.962c0,6.693,2.293,12.804,6.01,17.791V171.35
			c0-13.203,10.735-23.95,23.959-23.95c13.22,0,23.954,10.748,23.954,23.95v10.105c3.707-4.986,6.001-11.099,6.001-17.788
			C355.029,147.129,341.629,133.712,325.073,133.712z"/>
		<path fill="#FFFFFF" d="M325.073,361.451c9.466,0,17.115-7.667,17.115-17.115V170.209c0-9.454-7.649-17.12-17.115-17.12
			c-9.47,0-17.121,7.665-17.121,17.12v174.129C307.973,353.784,315.614,361.451,325.073,361.451z"/>
		<path fill="#FFFFFF" d="M295.115,346.328c0,16.541,13.418,29.969,29.959,29.969c16.556,0,29.965-13.419,29.965-29.969
			c0-6.688-2.285-12.822-5.991-17.807v13.236c0,13.229-10.754,23.975-23.974,23.975c-13.205,0-23.959-10.746-23.959-23.975v-13.236
			C297.407,333.506,295.115,339.64,295.115,346.328z"/>
		<path fill="#FFFFFF" d="M454.073,163.668c0-16.54-13.413-29.964-29.968-29.964c-16.533,0-29.961,13.416-29.961,29.964
			c0,6.689,2.294,12.802,6.006,17.788v-10.105c0-13.203,10.734-23.95,23.955-23.95c13.218,0,23.953,10.747,23.953,23.95v10.105
			C451.779,176.47,454.073,170.358,454.073,163.668z"/>
		<path fill="#FFFFFF" d="M424.105,376.297c16.555,0,29.968-13.419,29.968-29.969c0-6.688-2.29-12.822-5.994-17.807v13.236
			c0,13.229-10.735,23.975-23.955,23.975c-13.219,0-23.96-10.746-23.96-23.975v-13.236c-3.706,4.984-5.999,11.117-5.999,17.807
			C394.144,362.869,407.573,376.297,424.105,376.297z"/>
		<path fill="#FFFFFF" d="M479.448,206.043c-6.773,5.716-12.82,11.698-18.423,17.757c-15.071-28.954-18.391-53.369-18.479-54.073
			c-1.206-10.16-10.39-17.53-20.591-16.238c-10.185,1.188-17.493,10.408-16.286,20.591c0.262,2.24,5.157,40.454,30.89,81.776
			c-25.732,41.33-30.628,79.537-30.89,81.787c-1.189,10.172,6.067,19.339,16.239,20.556c0.753,0.1,1.487,0.133,2.231,0.133
			c9.247,0,17.253-6.924,18.414-16.319c0.047-0.397,3.289-24.945,18.47-54.094c5.603,6.063,11.65,12.039,18.443,17.769
			c3.483,2.93,7.725,4.37,11.949,4.37c5.289,0,10.535-2.237,14.21-6.598c6.611-7.854,5.611-19.561-2.224-26.167
			c-8.067-6.802-14.967-14.06-21.077-21.418c6.11-7.375,13.01-14.617,21.077-21.421c7.835-6.614,8.835-18.331,2.224-26.168
			C499.001,200.417,487.294,199.42,479.448,206.043z"/>
	</g>
</g>
</svg>
