<?xml version="1.0" encoding="utf-8"?>
<!-- Generator: Adobe Illustrator 16.0.0, SVG Export Plug-In . SVG Version: 6.00 Build 0)  -->
<!DOCTYPE svg PUBLIC "-//W3C//DTD SVG 1.1//EN" "http://www.w3.org/Graphics/SVG/1.1/DTD/svg11.dtd">
<svg version="1.1" id="Capa_1" xmlns="http://www.w3.org/2000/svg" xmlns:xlink="http://www.w3.org/1999/xlink" x="0px" y="0px"
	 width="512px" height="512px" viewBox="0 0 512 512" enable-background="new 0 0 512 512" xml:space="preserve">
<g>
	<g>
		<path fill="#FFFFFF" d="M393.52,263.238c-10.107-10.084-26.528-10.084-36.636,0c-8.021,8.037-19.444,10.471-29.673,7.576
			c0.566,3.137,0.998,6.365,1.217,9.532c8.725,2.503,18.454,0.681,25.356-6.184c11.801-11.816,31.034-11.816,42.835,0
			c10.107,10.069,26.528,10.069,36.628,0c5.277-5.277,12.043-8.067,18.938-8.626c0.59-3.236,1.135-6.486,1.777-9.707
			c-6.403,0.166-12.746,2.578-17.607,7.432C424.553,275.055,405.306,275.055,393.52,263.238z"/>
		<path fill="#FFFFFF" d="M436.355,179.066c-11.802,11.809-31.041,11.809-42.835,0c-10.107-10.078-26.528-10.078-36.636,0
			c-11.794,11.809-31.034,11.809-42.835,0c-5.307-5.292-12.346-7.651-19.315-7.364c0.552,3.16,1.036,6.32,1.738,9.503
			c7.5,0.174,14.984,3.069,20.677,8.8c10.107,10.078,26.521,10.078,36.628,0c11.802-11.809,31.034-11.809,42.835,0
			c10.107,10.078,26.528,10.078,36.628,0c8.937-8.943,22.113-11.09,33.113-6.501c0.279-2.767,0.59-5.542,0.794-8.263
			C457.288,169.691,444.731,170.689,436.355,179.066z"/>
		<path fill="#FFFFFF" d="M353.784,358.313c11.801-11.809,31.034-11.809,42.835,0c10.107,10.086,26.528,10.086,36.628,0
			c4.037-4.037,9.004-6.622,14.198-7.869c-0.023-3.031-0.159-6.086-0.363-9.133c-3.901,1.202-7.658,2.994-10.728,6.102
			c-11.802,11.801-31.041,11.801-42.835,0c-10.107-10.101-26.528-10.101-36.636,0c-11.794,11.801-31.034,11.801-42.835,0
			c-0.015,0-0.015,0-0.03-0.031c-0.657,2.412-1.073,4.756-1.534,7.1c1.655,1.104,3.228,2.358,4.672,3.811
			C327.264,368.413,343.677,368.413,353.784,358.313z"/>
		<path fill="#FFFFFF" d="M436.355,207.121c-11.802,11.809-31.041,11.809-42.835,0c-10.107-10.078-26.528-10.078-36.636,0
			c-11.794,11.809-31.034,11.809-42.835,0c-3.485-3.47-7.757-5.292-12.239-6.388c1.134,3.439,2.585,6.812,3.931,10.244
			c4.181,1.444,8.104,3.727,11.424,7.061c10.107,10.078,26.52,10.078,36.628,0c11.801-11.809,31.033-11.809,42.835,0
			c10.107,10.078,26.527,10.078,36.628,0c7.9-7.931,19.18-10.395,29.317-7.681c0.515-2.971,1.059-5.919,1.535-8.951
			C454.801,197.784,443.869,199.652,436.355,207.121z"/>
		<path fill="#FFFFFF" d="M436.355,235.184c-11.802,11.809-31.041,11.809-42.835,0c-10.107-10.085-26.528-10.085-36.636,0
			c-10.924,10.939-28.191,11.612-40.075,2.26c1.655,3.931,3.122,7.704,4.452,11.348c10.032,6.766,23.625,6.162,32.523-2.714
			c11.801-11.809,31.034-11.809,42.835,0c10.107,10.085,26.528,10.085,36.628,0c6.607-6.623,15.559-9.39,24.229-8.581
			c0.567-2.971,1.157-6.003,1.731-9.012C451.15,227.064,442.562,228.969,436.355,235.184z"/>
		<path fill="#FFFFFF" d="M353.784,400.43c11.801-11.831,31.034-11.831,42.835,0c10.107,10.07,26.528,10.07,36.628,0
			c2.14-2.178,4.589-3.779,7.106-5.141c1.24-3.395,2.275-6.955,3.19-10.554c-2.57,1.239-5.073,2.661-7.189,4.763
			c-11.802,11.824-31.041,11.824-42.835,0c-10.107-10.07-26.528-10.07-36.636,0c-11.794,11.824-31.034,11.824-42.835,0
			c-0.446-0.453-1.073-0.62-1.55-1.035c0.824,3.771,1.966,7.378,3.312,10.848c0.446,0.4,0.93,0.688,1.346,1.089
			C327.264,410.5,343.677,410.5,353.784,400.43z"/>
		<path fill="#FFFFFF" d="M330.174,19.074c-2.116,2.208-4.173,4.551-6.153,7.091c9.692,4.846,21.682,3.538,29.771-4.536
			c11.801-11.809,31.033-11.809,42.835,0c7.416,7.401,18.227,9.269,27.457,5.791c-2.623-2.842-5.329-5.511-8.104-7.945
			c-8.104,0.287-16.277-2.593-22.438-8.762c-10.107-10.077-26.521-10.077-36.628,0C349.642,17.978,339.572,20.737,330.174,19.074z"
			/>
		<path fill="#FFFFFF" d="M353.784,344.297c11.801-11.809,31.034-11.809,42.835,0c10.107,10.085,26.528,10.085,36.628,0
			c3.924-3.924,8.694-6.403,13.699-7.741c-0.167-3.107-0.258-6.153-0.295-9.179c-3.758,1.226-7.326,3.032-10.305,6.004
			c-11.801,11.823-31.041,11.823-42.843,0c-10.1-10.07-26.52-10.07-36.628,0c-10.675,10.689-27.397,11.604-39.229,2.955
			c-0.038,0.045-0.038,0.084-0.068,0.151c-0.823,2.216-1.421,4.31-2.102,6.456c0.552,0.484,1.134,0.862,1.671,1.369
			C327.264,354.382,343.677,354.382,353.784,344.297z"/>
		<path fill="#FFFFFF" d="M446.832,313.324c-3.81,1.187-7.461,3.008-10.485,6.032c-11.801,11.809-31.041,11.809-42.835,0
			c-10.107-10.085-26.527-10.085-36.636,0c-9.518,9.54-23.859,11.227-35.229,5.397c-0.74,2.246-1.512,4.559-2.389,6.918
			c10.176,8.293,25.038,8.066,34.519-1.398c11.802-11.809,31.034-11.809,42.835,0c10.107,10.084,26.528,10.084,36.628,0
			c3.818-3.818,8.415-6.245,13.269-7.629C446.523,319.478,446.719,316.416,446.832,313.324z"/>
		<path fill="#FFFFFF" d="M436.355,291.301c-11.802,11.81-31.041,11.81-42.835,0c-10.107-10.069-26.528-10.069-36.636,0
			c-7.862,7.878-19.036,10.381-29.106,7.719c-0.362,2.904-0.861,5.897-1.52,8.937c9.246,3.522,20.087,1.655,27.541-5.761
			c11.802-11.809,31.042-11.809,42.843,0c10.101,10.07,26.521,10.07,36.628,0c4.227-4.256,9.466-6.933,14.954-8.104
			c0.348-3.1,0.62-6.237,1.036-9.306C444.527,285.82,439.99,287.665,436.355,291.301z"/>
		<path fill="#FFFFFF" d="M436.355,305.325c-11.802,11.809-31.041,11.809-42.835,0c-10.107-10.093-26.528-10.093-36.636,0
			c-8.513,8.55-20.964,10.833-31.669,6.985c-0.643,2.623-1.156,5.171-1.988,7.931c9.828,5.382,22.241,4.31,30.558-3.999
			c11.801-11.809,31.034-11.809,42.835,0c10.107,10.069,26.528,10.069,36.628,0c3.938-3.962,8.747-6.449,13.759-7.757
			c0.205-3.138,0.401-6.26,0.696-9.345C443.559,300.268,439.59,302.098,436.355,305.325z"/>
		<path fill="#FFFFFF" d="M393.86,5.353c0.938,0.741,1.897,1.398,2.76,2.238c3.576,3.568,8.021,5.42,12.61,6.456
			C404.247,10.44,399.107,7.613,393.86,5.353z"/>
		<path fill="#FFFFFF" d="M393.52,38.783c-10.107-10.085-26.528-10.085-36.636,0c-11.483,11.506-30.043,11.726-41.905,0.756
			c-1.134,1.943-2.358,3.765-3.409,5.829c1.966,1.217,3.886,2.616,5.587,4.324c10.107,10.085,26.521,10.085,36.628,0
			c11.801-11.809,31.034-11.809,42.835,0c10.107,10.085,26.528,10.085,36.628,0c1.535-1.535,3.213-2.858,4.967-3.992
			c-1.187-1.845-2.374-3.727-3.621-5.489C422.732,50.433,404.761,50.047,393.52,38.783z"/>
		<path fill="#FFFFFF" d="M353.784,414.424c11.801-11.794,31.034-11.794,42.835,0c8.452,8.437,21.092,9.396,30.996,3.764
			c3.704-4.559,6.879-9.623,9.518-15.164c-0.242,0.203-0.529,0.279-0.778,0.498c-11.802,11.824-31.041,11.824-42.835,0
			c-10.107-10.069-26.528-10.069-36.636,0c-9.994,10.018-25.349,11.453-36.976,4.491c2.631,4.687,5.768,8.981,9.344,12.791
			C337.803,422.913,347.124,421.084,353.784,414.424z"/>
		<path fill="#FFFFFF" d="M353.784,386.368c11.801-11.809,31.034-11.809,42.835,0c10.107,10.085,26.528,10.085,36.628,0
			c3.35-3.356,7.356-5.64,11.552-7.091c0.658-3.206,1.194-6.457,1.61-9.76c-3.659,1.225-7.137,3.031-10.055,5.965
			c-11.802,11.801-31.041,11.801-42.835,0c-10.107-10.086-26.528-10.086-36.636,0c-11.794,11.801-31.034,11.801-42.835,0
			c-0.96-0.969-2.185-1.385-3.273-2.17c0.068,2.971,0.287,5.858,0.65,8.686c2.025,1.21,3.969,2.624,5.708,4.378
			C327.264,396.477,343.677,396.477,353.784,386.368z"/>
		<path fill="#FFFFFF" d="M436.355,151.026c-11.802,11.809-31.041,11.809-42.835,0c-10.107-10.085-26.528-10.085-36.636,0
			c-11.794,11.809-31.034,11.809-42.835,0c-6.139-6.131-14.515-8.066-22.49-6.774c0.144,3.024,0.514,6.101,0.793,9.133
			c8.86-0.991,18.038,1.769,24.797,8.527c10.107,10.085,26.521,10.085,36.628,0c11.802-11.809,31.034-11.809,42.835,0
			c10.107,10.085,26.528,10.085,36.628,0c9.345-9.374,23.354-11.174,34.647-5.677c0-3.001-0.219-5.867-0.325-8.815
			C457.628,141.606,444.837,142.528,436.355,151.026z"/>
		<path fill="#FFFFFF" d="M393.52,431.569c-10.107-10.07-26.528-10.07-36.636,0c-1.822,1.829-3.841,3.281-5.942,4.536
			c7.84,3.364,16.397,5.246,25.334,5.262c9.359,0.015,17.69-1.535,25.068-4.271C398.517,435.675,395.856,433.928,393.52,431.569z"/>
		<path fill="#FFFFFF" d="M353.784,7.613c3.795-3.795,8.376-6.252,13.229-7.598c-0.196,0-0.362-0.015-0.536-0.015
			c-11.453,0.688-22.348,6.146-32.107,14.961C341.348,15.264,348.44,12.95,353.784,7.613z"/>
		<path fill="#FFFFFF" d="M396.619,428.47c3.069,3.031,6.729,4.861,10.584,6.07c4.725-2.351,9.019-5.238,12.867-8.61
			c-9.382,1.588-19.354-1.149-26.559-8.354c-10.107-10.093-26.527-10.093-36.636,0c-5.965,5.965-13.827,8.897-21.689,8.822
			c3.312,2.797,6.895,5.262,10.689,7.318c2.828-1.263,5.55-2.934,7.886-5.239C365.578,416.668,384.819,416.668,396.619,428.47z"/>
		<path fill="#FFFFFF" d="M436.355,122.956c-11.802,11.816-31.041,11.816-42.835,0c-10.107-10.078-26.528-10.078-36.636,0
			c-11.794,11.816-31.034,11.816-42.835,0c-5.949-5.935-14.017-7.938-21.758-6.902c-0.264,3.107-0.589,6.177-0.732,9.336
			c9.109-1.255,18.627,1.482,25.598,8.46c10.107,10.085,26.521,10.085,36.628,0c11.801-11.809,31.034-11.809,42.835,0
			c10.107,10.085,26.528,10.085,36.628,0c8.83-8.845,21.841-11.053,32.772-6.653c-0.386-3.213-0.695-6.517-1.172-9.639
			C455.391,113.536,444.043,115.267,436.355,122.956z"/>
		<path fill="#FFFFFF" d="M393.52,66.845c-10.107-10.085-26.528-10.085-36.636,0c-11.794,11.809-31.034,11.809-42.835,0
			c-2.752-2.759-6.033-4.589-9.465-5.844c-1.059,2.744-1.988,5.609-2.934,8.475c5.692,1.111,11.105,3.871,15.506,8.271
			c10.107,10.077,26.521,10.077,36.628,0c11.801-11.809,31.034-11.809,42.835,0c10.107,10.077,26.528,10.077,36.628,0
			c4.93-4.952,11.188-7.704,17.646-8.505c-1.278-2.949-2.685-5.67-4.09-8.437c-3.811,1.202-7.425,3.016-10.448,6.04
			C424.553,78.654,405.306,78.654,393.52,66.845z"/>
		<path fill="#FFFFFF" d="M353.784,372.352c11.801-11.809,31.034-11.809,42.835,0c10.107,10.086,26.528,10.086,36.628,0
			c3.901-3.9,8.626-6.381,13.593-7.711c0.295-3.084,0.431-6.191,0.499-9.344c-4.015,1.187-7.81,2.994-10.984,6.153
			c-11.802,11.794-31.041,11.794-42.835,0c-10.107-10.107-26.528-10.107-36.636,0c-11.794,11.794-31.034,11.794-42.835,0
			c-0.741-0.763-1.693-1.036-2.479-1.655c-0.378,2.639-0.688,5.27-0.786,7.81c2.237,1.292,4.445,2.805,6.357,4.739
			C327.264,382.438,343.677,382.438,353.784,372.352z"/>
		<path fill="#FFFFFF" d="M436.355,94.9c-11.802,11.809-31.041,11.809-42.835,0c-10.107-10.077-26.528-10.077-36.636,0
			c-11.794,11.809-31.034,11.809-42.835,0c-4.831-4.8-11.105-7.167-17.433-7.401c-0.711,3.13-1.293,6.32-1.845,9.541
			c8.066-0.272,16.238,2.608,22.399,8.777c10.108,10.077,26.528,10.077,36.628,0c11.802-11.809,31.042-11.809,42.843,0
			c10.101,10.077,26.521,10.077,36.628,0c7.401-7.401,17.713-10.153,27.276-8.286c-0.839-3.289-1.807-6.441-2.789-9.594
			C450.099,87.008,442.198,89.049,436.355,94.9z"/>
		<path fill="#FFFFFF" d="M78.76,204.49c10.107,10.085,26.521,10.085,36.628,0c11.801-11.809,31.041-11.809,42.843,0
			c10.1,10.085,26.521,10.085,36.628,0c6.978-6.971,16.511-9.707,25.583-8.46c-0.121-3.16-0.461-6.252-0.726-9.336
			c-7.734-1.059-15.823,0.968-21.75,6.902c-11.794,11.816-31.042,11.816-42.835,0c-10.108-10.078-26.521-10.078-36.628,0
			c-11.794,11.816-31.042,11.816-42.835,0c-7.727-7.696-19.044-9.427-28.494-5.398c-0.491,3.122-0.794,6.426-1.164,9.639
			C56.942,193.438,69.93,195.645,78.76,204.49z"/>
		<path fill="#FFFFFF" d="M78.76,176.45c10.107,10.077,26.521,10.077,36.628,0c11.801-11.809,31.041-11.809,42.843,0
			c10.1,10.077,26.521,10.077,36.628,0c6.161-6.162,14.326-9.027,22.408-8.777c-0.567-3.213-1.149-6.403-1.853-9.533
			c-6.328,0.234-12.61,2.578-17.434,7.401c-11.793,11.809-31.041,11.809-42.835,0c-10.107-10.078-26.521-10.078-36.628,0
			c-11.794,11.809-31.041,11.809-42.835,0c-5.844-5.844-13.744-7.885-21.387-6.97c-0.99,3.145-1.951,6.297-2.798,9.586
			C61.054,166.274,71.366,169.034,78.76,176.45z"/>
		<path fill="#FFFFFF" d="M78.76,414.93c10.107,10.093,26.521,10.093,36.628,0c11.801-11.809,31.041-11.809,42.843,0
			c10.1,10.093,26.521,10.093,36.628,0c0.507-0.499,1.111-0.877,1.671-1.361c-0.688-2.139-1.263-4.248-2.109-6.455
			c-0.016-0.038-0.038-0.106-0.061-0.159c-11.831,8.663-28.547,7.741-39.229-2.948c-10.107-10.078-26.521-10.078-36.628,0
			c-11.794,11.824-31.042,11.824-42.835,0c-2.986-2.971-6.555-4.778-10.313-6.003c-0.03,3.009-0.128,6.071-0.287,9.171
			C70.081,408.534,74.844,411.014,78.76,414.93z"/>
		<path fill="#FFFFFF" d="M78.76,232.545c10.107,10.085,26.521,10.085,36.628,0c11.801-11.809,31.041-11.809,42.843,0
			c10.1,10.085,26.521,10.085,36.628,0c6.767-6.758,15.944-9.533,24.805-8.527c0.271-3.032,0.635-6.108,0.778-9.133
			c-7.961-1.3-16.353,0.635-22.483,6.774c-11.794,11.809-31.041,11.809-42.835,0c-10.107-10.085-26.521-10.085-36.628,0
			c-11.794,11.809-31.041,11.809-42.835,0c-8.497-8.498-21.281-9.397-31.223-3.606c-0.106,2.948-0.333,5.813-0.333,8.815
			C55.422,221.372,69.423,223.193,78.76,232.545z"/>
		<path fill="#FFFFFF" d="M78.76,260.615c10.107,10.078,26.521,10.078,36.628,0c11.801-11.816,31.041-11.816,42.843,0
			c10.1,10.078,26.521,10.078,36.628,0c5.7-5.723,13.177-8.603,20.677-8.792c0.703-3.168,1.179-6.32,1.746-9.503
			c-6.978-0.272-14.009,2.056-19.323,7.363c-11.794,11.809-31.041,11.809-42.835,0c-10.107-10.077-26.521-10.077-36.628,0
			c-11.794,11.809-31.041,11.809-42.835,0c-8.392-8.369-20.949-9.375-30.8-3.871c0.197,2.722,0.507,5.511,0.786,8.271
			C56.655,249.518,69.831,251.672,78.76,260.615z"/>
		<path fill="#FFFFFF" d="M102.785,84.694c4.581-1.036,9.034-2.888,12.603-6.456c0.862-0.862,1.837-1.52,2.752-2.238
			C112.916,78.253,107.76,81.081,102.785,84.694z"/>
		<path fill="#FFFFFF" d="M65.499,393.285c4.839,1.384,9.45,3.811,13.261,7.621c10.107,10.092,26.521,10.092,36.628,0
			c11.801-11.809,31.041-11.809,42.843,0c9.48,9.473,24.351,9.691,34.519,1.398c-0.877-2.359-1.655-4.672-2.396-6.91
			c-11.393,5.859-25.711,4.136-35.229-5.397c-10.107-10.093-26.521-10.093-36.628,0c-11.794,11.809-31.041,11.809-42.835,0
			c-3.017-3.017-6.676-4.854-10.493-6.04C65.295,387.041,65.485,390.118,65.499,393.285z"/>
		<path fill="#FFFFFF" d="M87.93,98.068c9.216,3.47,20.05,1.603,27.458-5.799c11.801-11.809,31.041-11.809,42.843,0
			c8.089,8.066,20.079,9.382,29.771,4.536c-1.974-2.54-4.045-4.884-6.162-7.091c-9.404,1.663-19.475-1.096-26.709-8.354
			c-10.107-10.077-26.521-10.077-36.628,0c-6.162,6.162-14.334,9.042-22.446,8.762C93.268,92.557,90.576,95.218,87.93,98.068z"/>
		<path fill="#FFFFFF" d="M78.76,386.875c10.107,10.07,26.521,10.07,36.628,0c11.801-11.809,31.041-11.809,42.843,0
			c8.339,8.315,20.752,9.374,30.564,3.999c-0.823-2.759-1.353-5.315-1.988-7.938c-10.705,3.849-23.148,1.588-31.676-6.984
			c-10.108-10.086-26.521-10.086-36.628,0c-11.794,11.809-31.042,11.809-42.835,0c-3.251-3.259-7.213-5.051-11.355-6.223
			c0.287,3.1,0.469,6.244,0.673,9.382C70.021,380.418,74.828,382.898,78.76,386.875z"/>
		<path fill="#FFFFFF" d="M78.76,372.852c10.107,10.084,26.521,10.084,36.628,0c11.801-11.81,31.041-11.81,42.843,0
			c7.446,7.408,18.28,9.291,27.533,5.775c-0.635-3.063-1.126-6.07-1.52-8.936c-10.063,2.623-21.251,0.143-29.099-7.742
			c-10.107-10.085-26.521-10.085-36.628,0c-11.794,11.816-31.041,11.816-42.835,0c-3.636-3.629-8.18-5.504-12.874-6.509
			c0.385,3.085,0.688,6.185,1.027,9.306C69.295,365.934,74.527,368.595,78.76,372.852z"/>
		<path fill="#FFFFFF" d="M197.958,460.123c-11.794,11.832-31.041,11.832-42.835,0c-10.107-10.069-26.521-10.069-36.628,0
			c-11.794,11.832-31.041,11.832-42.835,0c-2.124-2.102-4.649-3.515-7.189-4.755c0.907,3.621,1.92,7.151,3.183,10.554
			c2.54,1.368,4.975,2.971,7.114,5.141c10.107,10.07,26.521,10.07,36.628,0c11.801-11.823,31.041-11.823,42.842,0
			c10.101,10.07,26.521,10.07,36.629,0c0.408-0.416,0.899-0.726,1.338-1.104c1.346-3.47,2.495-7.076,3.318-10.856
			C199.025,459.504,198.419,459.685,197.958,460.123z"/>
		<path fill="#FFFFFF" d="M115.388,485.063c11.801-11.801,31.041-11.801,42.843,0c6.652,6.661,15.981,8.482,24.517,6.366
			c3.584-3.811,6.721-8.104,9.352-12.814c-11.635,7.008-26.959,5.549-36.976-4.445c-10.107-10.093-26.521-10.093-36.628,0
			c-11.794,11.794-31.041,11.794-42.835,0c-0.234-0.242-0.537-0.31-0.778-0.514c2.631,5.511,5.828,10.584,9.518,15.135
			C94.303,494.461,106.966,493.493,115.388,485.063z"/>
		<path fill="#FFFFFF" d="M115.388,457.009c11.801-11.809,31.041-11.809,42.843,0c10.1,10.085,26.521,10.085,36.628,0
			c1.754-1.739,3.689-3.16,5.715-4.4c0.371-2.827,0.567-5.692,0.636-8.663c-1.081,0.764-2.299,1.187-3.267,2.14
			c-11.801,11.823-31.041,11.823-42.842,0c-10.101-10.07-26.521-10.07-36.628,0c-11.802,11.823-31.042,11.823-42.843,0
			c-2.91-2.896-6.396-4.726-10.055-5.965c0.386,3.326,0.938,6.569,1.595,9.76c4.219,1.443,8.211,3.757,11.56,7.099
			C88.867,467.108,105.288,467.108,115.388,457.009z"/>
		<path fill="#FFFFFF" d="M155.123,109.423c-10.107-10.085-26.521-10.085-36.628,0c-11.242,11.257-29.204,11.65-41.066,1.429
			c-1.262,1.739-2.441,3.636-3.621,5.481c1.77,1.134,3.425,2.457,4.96,3.992c10.107,10.085,26.521,10.085,36.628,0
			c11.801-11.809,31.041-11.809,42.843,0c10.1,10.085,26.52,10.085,36.628,0c1.724-1.708,3.621-3.1,5.594-4.317
			c-1.081-2.063-2.29-3.871-3.424-5.829C185.174,121.141,166.622,120.93,155.123,109.423z"/>
		<path fill="#FFFFFF" d="M158.231,499.103c2.336,2.313,5.05,3.984,7.877,5.239c3.826-2.049,7.379-4.521,10.697-7.311
			c-7.847,0.068-15.731-2.865-21.704-8.83c-10.101-10.085-26.521-10.085-36.628,0c-7.205,7.205-17.185,9.949-26.559,8.361
			c3.863,3.356,8.157,6.26,12.875,8.604c3.848-1.202,7.521-3.032,10.576-6.071C127.189,487.31,146.429,487.31,158.231,499.103z"/>
		<path fill="#FFFFFF" d="M155.123,502.21c-10.107-10.07-26.521-10.07-36.628,0c-2.344,2.358-5.013,4.082-7.817,5.511
			c7.401,2.744,15.718,4.295,25.069,4.271c8.936-0.015,17.486-1.89,25.341-5.254C158.971,505.483,156.946,504.032,155.123,502.21z"
			/>
		<path fill="#FFFFFF" d="M158.231,78.253c5.353,5.337,12.436,7.666,19.459,7.348c-9.805-8.815-20.677-14.288-32.138-14.961
			c-0.181,0-0.354,0.015-0.536,0.015C149.839,71.994,154.436,74.458,158.231,78.253z"/>
		<path fill="#FFFFFF" d="M78.76,316.726c10.107,10.101,26.521,10.101,36.628,0c11.801-11.802,31.041-11.802,42.843,0
			c8.897,8.897,22.461,9.48,32.53,2.722c1.315-3.651,2.782-7.416,4.431-11.348c-11.869,9.344-29.121,8.687-40.068-2.26
			c-10.107-10.094-26.521-10.094-36.628,0c-11.794,11.809-31.041,11.809-42.835,0c-6.237-6.223-14.795-8.12-22.847-6.676
			c0.56,2.994,1.127,6.018,1.724,8.996C63.209,307.336,72.16,310.104,78.76,316.726z"/>
		<path fill="#FFFFFF" d="M115.388,442.985c11.801-11.81,31.041-11.81,42.843,0c10.1,10.092,26.521,10.092,36.628,0
			c1.92-1.929,4.112-3.448,6.373-4.74c-0.121-2.57-0.424-5.179-0.786-7.81c-0.794,0.62-1.754,0.93-2.495,1.655
			c-11.801,11.802-31.041,11.802-42.842,0c-10.101-10.1-26.521-10.1-36.629,0c-11.801,11.802-31.041,11.802-42.842,0
			c-3.16-3.152-6.993-4.959-10.985-6.153c0.068,3.16,0.22,6.26,0.492,9.329c4.967,1.346,9.699,3.833,13.593,7.719
			C88.867,453.077,105.288,453.077,115.388,442.985z"/>
		<path fill="#FFFFFF" d="M78.76,288.686c10.107,10.07,26.521,10.07,36.628,0c11.801-11.831,31.041-11.831,42.843,0
			c10.1,10.07,26.521,10.07,36.628,0c3.318-3.326,7.258-5.625,11.423-7.076c1.323-3.417,2.768-6.789,3.916-10.244
			c-4.468,1.104-8.754,2.918-12.239,6.389c-11.794,11.824-31.041,11.824-42.835,0c-10.107-10.07-26.521-10.07-36.628,0
			c-11.794,11.824-31.041,11.824-42.835,0c-7.507-7.484-18.454-9.344-27.745-5.73c0.483,3.031,1.028,5.987,1.55,8.959
			C59.588,278.268,70.86,280.748,78.76,288.686z"/>
		<path fill="#FFFFFF" d="M155.123,137.479c-10.107-10.085-26.521-10.085-36.628,0c-11.794,11.809-31.041,11.809-42.835,0
			c-3.017-2.994-6.638-4.816-10.455-6.033c-1.392,2.767-2.806,5.504-4.083,8.437c6.449,0.816,12.716,3.568,17.638,8.505
			c10.107,10.078,26.521,10.078,36.628,0c11.801-11.809,31.041-11.809,42.843,0c10.1,10.078,26.521,10.078,36.628,0
			c4.399-4.4,9.813-7.159,15.506-8.271c-0.953-2.88-1.875-5.753-2.934-8.475c-3.439,1.262-6.706,3.084-9.465,5.844
			C186.164,149.287,166.917,149.287,155.123,137.479z"/>
		<path fill="#FFFFFF" d="M115.388,428.946c11.801-11.81,31.041-11.81,42.843,0c10.1,10.093,26.521,10.093,36.628,0
			c1.451-1.459,3.017-2.722,4.672-3.811c-0.453-2.352-0.877-4.71-1.534-7.091c-0.016,0-0.016,0-0.038,0
			c-11.794,11.823-31.041,11.823-42.835,0c-10.107-10.07-26.521-10.07-36.628,0c-11.794,11.823-31.041,11.823-42.835,0
			c-3.1-3.085-6.834-4.892-10.735-6.094c-0.196,3.055-0.333,6.094-0.355,9.125c5.194,1.277,10.131,3.833,14.19,7.885
			C88.867,439.054,105.288,439.054,115.388,428.946z"/>
		<path fill="#FFFFFF" d="M78.76,344.788c10.107,10.07,26.521,10.07,36.628,0c11.801-11.823,31.041-11.823,42.843,0
			c6.887,6.864,16.594,8.694,25.356,6.192c0.234-3.176,0.657-6.366,1.217-9.541c-10.222,2.902-21.659,0.453-29.681-7.568
			c-10.107-10.092-26.521-10.092-36.628,0c-11.794,11.809-31.041,11.809-42.835,0c-4.854-4.854-11.219-7.265-17.607-7.432
			c0.62,3.244,1.18,6.479,1.77,9.707C66.717,336.722,73.483,339.52,78.76,344.788z"/>
	</g>
</g>
</svg>
