<?xml version="1.0" encoding="utf-8"?>
<!-- Generator: Adobe Illustrator 16.0.0, SVG Export Plug-In . SVG Version: 6.00 Build 0)  -->
<!DOCTYPE svg PUBLIC "-//W3C//DTD SVG 1.1//EN" "http://www.w3.org/Graphics/SVG/1.1/DTD/svg11.dtd">
<svg version="1.1" id="Calque_1" xmlns="http://www.w3.org/2000/svg" xmlns:xlink="http://www.w3.org/1999/xlink" x="0px" y="0px"
	 width="151.846px" height="54.649px" viewBox="0 0 151.846 54.649" enable-background="new 0 0 151.846 54.649"
	 xml:space="preserve">
<g>
	<path fill-rule="evenodd" clip-rule="evenodd" fill="#FFFFFF" d="M19.451,2.423c-9.88,11.604-19.355,25.994-19.45,36.75
		c-0.037,4.047,1.255,7.58,4.354,10.256c4.46,3.852,9.374,5.213,14.264,5.221c7.146,0.01,14.242-2.873,19.798-5.096
		c9.357-3.744,112.79-48.659,112.79-48.659c0.998-0.5,0.811-1.123-0.438-0.812C150.265,0.209,38.166,30.589,38.166,30.589
		c-2.164,0.607-4.374,0.922-6.524,0.934c-8.615,0.051-16.281-4.731-16.219-14.809C15.447,12.771,16.655,8.016,19.451,2.423
		L19.451,2.423z"/>
</g>
</svg>
