<?xml version="1.0" encoding="utf-8"?>
<!-- Generator: Adobe Illustrator 16.0.0, SVG Export Plug-In . SVG Version: 6.00 Build 0)  -->
<!DOCTYPE svg PUBLIC "-//W3C//DTD SVG 1.1//EN" "http://www.w3.org/Graphics/SVG/1.1/DTD/svg11.dtd">
<svg version="1.1" id="Capa_1" xmlns="http://www.w3.org/2000/svg" xmlns:xlink="http://www.w3.org/1999/xlink" x="0px" y="0px"
	 width="512px" height="512px" viewBox="0 0 512 512" enable-background="new 0 0 512 512" xml:space="preserve">
<path d="M446.794,214.47c-66.684,66.704-116.492,85.816-166.34,135.624c-35.349,35.369-21.289,52.025-71.217,101.953
	c-49.209,49.209-73.374,41.3-73.374,41.3s-39.343-19.231-46.992-56.059c0,0,22.068,6.431,67.063-38.585
	c16.596-16.535,47.291-20.75,63.688-34.189c20.631-16.896,37.526-34.071,41.601-38.146c7.928-7.908,57.117-35.249,103.949-69.778
	c12.881-9.487,4.933-32.534,20.071-47.692c15.138-15.158,48.449-8.747,59.354-19.651c96.681-96.68,42.14-159.729,42.14-159.729
	S564.663,96.64,446.794,214.47z"/>
<path fill="#FFFFFF" d="M146.397,389.539c13.86-13.84,43.497-19.912,59.194-32.514c14.799-11.803,25.644-19.771,43.697-37.825
	c23.605-23.606,61.092-43.757,101.573-71.537c11.403-7.849,11.104-41.78,22.787-51.086c12.162-9.726,54.501-13.161,66.403-25.064
	C518,93.566,476.2,28.78,476.2,28.78s-38.146-22.128-94.743,34.45c-4.055,4.054-8.787,7.868-14.08,11.463l5.932,23.406
	c1.318,5.213-1.657,10.565-6.67,11.963c-4.993,1.338-10.146-1.737-11.424-6.97l-4.713-18.553c-4.833,2.457-9.986,4.773-15.298,6.97
	l5.611,22.148c1.318,5.212-1.678,10.525-6.67,11.903c-4.993,1.398-10.146-1.697-11.464-6.93L317.47,98.18
	c-5.153,1.757-10.405,3.435-15.817,5.013l5.552,21.849c1.358,5.212-1.657,10.545-6.67,11.942c-4.993,1.378-10.125-1.717-11.424-6.95
	l-5.552-21.908c-5.472,1.398-11.024,2.696-16.616,3.914l5.433,21.349c1.298,5.213-1.638,10.565-6.65,11.943
	s-10.146-1.737-11.483-6.97l-5.731-22.508c-5.452,1.039-10.845,2.037-16.237,2.916l5.192,20.43
	c1.318,5.232-1.657,10.565-6.67,11.943c-4.993,1.338-10.125-1.757-11.443-6.95l-5.712-22.468
	c-5.771,0.859-11.384,1.638-16.796,2.356l5.313,20.97c1.298,5.213-1.657,10.565-6.65,11.923c-5.013,1.418-10.105-1.717-11.443-6.93
	l-5.991-23.666c-27.72,3.056-47.852,4.154-51.726,4.174c-43.357,0.799-34.25,55.58,6.73,55.5c0,21.309-1.777,48.35-18.793,65.365
	c-62.569,62.57-96.101,11.363-104.389,38.245c-9.547,30.855-1.519,41.12,23.605,69.28c15.078,16.895,44.396,63.527,44.396,63.527
	C76.492,421.209,98.033,437.902,146.397,389.539z"/>
</svg>
