<?xml version="1.0" encoding="utf-8"?>
<!-- Generator: Adobe Illustrator 16.0.0, SVG Export Plug-In . SVG Version: 6.00 Build 0)  -->
<!DOCTYPE svg PUBLIC "-//W3C//DTD SVG 1.1//EN" "http://www.w3.org/Graphics/SVG/1.1/DTD/svg11.dtd">
<svg version="1.1" id="Calque_1" xmlns="http://www.w3.org/2000/svg" xmlns:xlink="http://www.w3.org/1999/xlink" x="0px" y="0px"
	 width="300px" height="300px" viewBox="0 0 300 300" enable-background="new 0 0 300 300" xml:space="preserve">
<line fill="none" stroke="#FFFFFF" stroke-miterlimit="10" x1="6.127" y1="0" x2="6.127" y2="300"/>
<line fill="none" stroke="#FFFFFF" stroke-miterlimit="10" x1="14.106" y1="0" x2="14.106" y2="300"/>
<line fill="none" stroke="#FFFFFF" stroke-miterlimit="10" x1="22.085" y1="0" x2="22.085" y2="300"/>
<line fill="none" stroke="#FFFFFF" stroke-width="2" stroke-miterlimit="10" x1="30.064" y1="0" x2="30.064" y2="300"/>
<line fill="none" stroke="#FFFFFF" stroke-miterlimit="10" x1="37.51" y1="0" x2="37.51" y2="300"/>
<line fill="none" stroke="#FFFFFF" stroke-miterlimit="10" x1="45.489" y1="0" x2="45.489" y2="300"/>
<line fill="none" stroke="#FFFFFF" stroke-miterlimit="10" x1="53.468" y1="0" x2="53.468" y2="300"/>
<line fill="none" stroke="#FFFFFF" stroke-width="2" stroke-miterlimit="10" x1="61.447" y1="0" x2="61.447" y2="300"/>
<line fill="none" stroke="#FFFFFF" stroke-miterlimit="10" x1="68.892" y1="0" x2="68.892" y2="300"/>
<line fill="none" stroke="#FFFFFF" stroke-miterlimit="10" x1="76.871" y1="0" x2="76.871" y2="300"/>
<line fill="none" stroke="#FFFFFF" stroke-miterlimit="10" x1="84.85" y1="0" x2="84.85" y2="300"/>
<line fill="none" stroke="#FFFFFF" stroke-width="2" stroke-miterlimit="10" x1="92.829" y1="0" x2="92.829" y2="300"/>
<line fill="none" stroke="#FFFFFF" stroke-miterlimit="10" x1="100.274" y1="0" x2="100.274" y2="300"/>
<line fill="none" stroke="#FFFFFF" stroke-miterlimit="10" x1="108.253" y1="0" x2="108.253" y2="300"/>
<line fill="none" stroke="#FFFFFF" stroke-miterlimit="10" x1="116.232" y1="0" x2="116.232" y2="300"/>
<line fill="none" stroke="#FFFFFF" stroke-width="2" stroke-miterlimit="10" x1="124.211" y1="0" x2="124.211" y2="300"/>
<line fill="none" stroke="#FFFFFF" stroke-miterlimit="10" x1="131.657" y1="0" x2="131.657" y2="300"/>
<line fill="none" stroke="#FFFFFF" stroke-miterlimit="10" x1="139.636" y1="0" x2="139.636" y2="300"/>
<line fill="none" stroke="#FFFFFF" stroke-miterlimit="10" x1="147.615" y1="0" x2="147.615" y2="300"/>
<line fill="none" stroke="#FFFFFF" stroke-width="2" stroke-miterlimit="10" x1="155.594" y1="0" x2="155.594" y2="300"/>
<line fill="none" stroke="#FFFFFF" stroke-miterlimit="10" x1="163.039" y1="0" x2="163.039" y2="300"/>
<line fill="none" stroke="#FFFFFF" stroke-miterlimit="10" x1="171.018" y1="0" x2="171.018" y2="300"/>
<line fill="none" stroke="#FFFFFF" stroke-miterlimit="10" x1="178.997" y1="0" x2="178.997" y2="300"/>
<line fill="none" stroke="#FFFFFF" stroke-width="2" stroke-miterlimit="10" x1="186.977" y1="0" x2="186.977" y2="300"/>
<line fill="none" stroke="#FFFFFF" stroke-miterlimit="10" x1="194.422" y1="0" x2="194.422" y2="300"/>
<line fill="none" stroke="#FFFFFF" stroke-miterlimit="10" x1="202.4" y1="0" x2="202.4" y2="300"/>
<line fill="none" stroke="#FFFFFF" stroke-miterlimit="10" x1="210.379" y1="0" x2="210.379" y2="300"/>
<line fill="none" stroke="#FFFFFF" stroke-width="2" stroke-miterlimit="10" x1="218.359" y1="0" x2="218.359" y2="300"/>
<line fill="none" stroke="#FFFFFF" stroke-miterlimit="10" x1="225.805" y1="0" x2="225.805" y2="300"/>
<line fill="none" stroke="#FFFFFF" stroke-miterlimit="10" x1="233.783" y1="0" x2="233.783" y2="300"/>
<line fill="none" stroke="#FFFFFF" stroke-miterlimit="10" x1="241.762" y1="0" x2="241.762" y2="300"/>
<line fill="none" stroke="#FFFFFF" stroke-width="2" stroke-miterlimit="10" x1="249.742" y1="0" x2="249.742" y2="300"/>
<line fill="none" stroke="#FFFFFF" stroke-miterlimit="10" x1="257.188" y1="0" x2="257.188" y2="300"/>
<line fill="none" stroke="#FFFFFF" stroke-miterlimit="10" x1="265.166" y1="0" x2="265.166" y2="300"/>
<line fill="none" stroke="#FFFFFF" stroke-miterlimit="10" x1="273.145" y1="0" x2="273.145" y2="300"/>
<line fill="none" stroke="#FFFFFF" stroke-width="2" stroke-miterlimit="10" x1="281.125" y1="0" x2="281.125" y2="300"/>
<line fill="none" stroke="#FFFFFF" stroke-miterlimit="10" x1="288.57" y1="0" x2="288.57" y2="300"/>
<line fill="none" stroke="#FFFFFF" stroke-miterlimit="10" x1="296.549" y1="0" x2="296.549" y2="300"/>
<line fill="none" stroke="#FFFFFF" stroke-miterlimit="10" x1="300.316" y1="0" x2="0.316" y2="0"/>
<line fill="none" stroke="#FFFFFF" stroke-miterlimit="10" x1="300.316" y1="7.979" x2="0.316" y2="7.979"/>
<line fill="none" stroke="#FFFFFF" stroke-miterlimit="10" x1="300.316" y1="15.958" x2="0.316" y2="15.958"/>
<line fill="none" stroke="#FFFFFF" stroke-width="2" stroke-miterlimit="10" x1="300.316" y1="23.937" x2="0.316" y2="23.937"/>
<line fill="none" stroke="#FFFFFF" stroke-miterlimit="10" x1="300.316" y1="31.382" x2="0.316" y2="31.382"/>
<line fill="none" stroke="#FFFFFF" stroke-miterlimit="10" x1="300.316" y1="39.361" x2="0.316" y2="39.361"/>
<line fill="none" stroke="#FFFFFF" stroke-miterlimit="10" x1="300.316" y1="47.34" x2="0.316" y2="47.34"/>
<line fill="none" stroke="#FFFFFF" stroke-width="2" stroke-miterlimit="10" x1="300.316" y1="55.319" x2="0.316" y2="55.319"/>
<line fill="none" stroke="#FFFFFF" stroke-miterlimit="10" x1="300.316" y1="62.765" x2="0.316" y2="62.765"/>
<line fill="none" stroke="#FFFFFF" stroke-miterlimit="10" x1="300.316" y1="70.744" x2="0.316" y2="70.744"/>
<line fill="none" stroke="#FFFFFF" stroke-miterlimit="10" x1="300.316" y1="78.723" x2="0.316" y2="78.723"/>
<line fill="none" stroke="#FFFFFF" stroke-width="2" stroke-miterlimit="10" x1="300.316" y1="86.702" x2="0.316" y2="86.702"/>
<line fill="none" stroke="#FFFFFF" stroke-miterlimit="10" x1="300.316" y1="94.147" x2="0.316" y2="94.147"/>
<line fill="none" stroke="#FFFFFF" stroke-miterlimit="10" x1="300.316" y1="102.126" x2="0.316" y2="102.126"/>
<line fill="none" stroke="#FFFFFF" stroke-miterlimit="10" x1="300.316" y1="110.105" x2="0.316" y2="110.105"/>
<line fill="none" stroke="#FFFFFF" stroke-width="2" stroke-miterlimit="10" x1="300.316" y1="118.084" x2="0.316" y2="118.084"/>
<line fill="none" stroke="#FFFFFF" stroke-miterlimit="10" x1="300.316" y1="125.529" x2="0.316" y2="125.529"/>
<line fill="none" stroke="#FFFFFF" stroke-miterlimit="10" x1="300.316" y1="133.508" x2="0.316" y2="133.508"/>
<line fill="none" stroke="#FFFFFF" stroke-miterlimit="10" x1="300.316" y1="141.487" x2="0.316" y2="141.487"/>
<line fill="none" stroke="#FFFFFF" stroke-width="2" stroke-miterlimit="10" x1="300.316" y1="149.466" x2="0.316" y2="149.466"/>
<line fill="none" stroke="#FFFFFF" stroke-miterlimit="10" x1="300.316" y1="156.912" x2="0.316" y2="156.912"/>
<line fill="none" stroke="#FFFFFF" stroke-miterlimit="10" x1="300.316" y1="164.891" x2="0.316" y2="164.891"/>
<line fill="none" stroke="#FFFFFF" stroke-miterlimit="10" x1="300.316" y1="172.869" x2="0.316" y2="172.869"/>
<line fill="none" stroke="#FFFFFF" stroke-width="2" stroke-miterlimit="10" x1="300.316" y1="180.85" x2="0.316" y2="180.85"/>
<line fill="none" stroke="#FFFFFF" stroke-miterlimit="10" x1="300.316" y1="188.295" x2="0.316" y2="188.295"/>
<line fill="none" stroke="#FFFFFF" stroke-miterlimit="10" x1="300.316" y1="196.273" x2="0.316" y2="196.273"/>
<line fill="none" stroke="#FFFFFF" stroke-miterlimit="10" x1="300.316" y1="204.252" x2="0.316" y2="204.252"/>
<line fill="none" stroke="#FFFFFF" stroke-width="2" stroke-miterlimit="10" x1="300.316" y1="212.232" x2="0.316" y2="212.232"/>
<line fill="none" stroke="#FFFFFF" stroke-miterlimit="10" x1="300.316" y1="219.678" x2="0.316" y2="219.678"/>
<line fill="none" stroke="#FFFFFF" stroke-miterlimit="10" x1="300.316" y1="227.656" x2="0.316" y2="227.656"/>
<line fill="none" stroke="#FFFFFF" stroke-miterlimit="10" x1="300.316" y1="235.635" x2="0.316" y2="235.635"/>
<line fill="none" stroke="#FFFFFF" stroke-width="2" stroke-miterlimit="10" x1="300.316" y1="243.615" x2="0.316" y2="243.615"/>
<line fill="none" stroke="#FFFFFF" stroke-miterlimit="10" x1="300.316" y1="251.061" x2="0.316" y2="251.061"/>
<line fill="none" stroke="#FFFFFF" stroke-miterlimit="10" x1="300.316" y1="259.039" x2="0.316" y2="259.039"/>
<line fill="none" stroke="#FFFFFF" stroke-miterlimit="10" x1="300.316" y1="267.018" x2="0.316" y2="267.018"/>
<line fill="none" stroke="#FFFFFF" stroke-width="2" stroke-miterlimit="10" x1="300.316" y1="274.998" x2="0.316" y2="274.998"/>
<line fill="none" stroke="#FFFFFF" stroke-miterlimit="10" x1="300.316" y1="282.443" x2="0.316" y2="282.443"/>
<line fill="none" stroke="#FFFFFF" stroke-miterlimit="10" x1="300.316" y1="290.422" x2="0.316" y2="290.422"/>
<line fill="none" stroke="#FFFFFF" stroke-miterlimit="10" x1="300.316" y1="298.4" x2="0.316" y2="298.4"/>
</svg>
