<?xml version="1.0" encoding="utf-8"?>
<!-- Generator: Adobe Illustrator 16.0.0, SVG Export Plug-In . SVG Version: 6.00 Build 0)  -->
<!DOCTYPE svg PUBLIC "-//W3C//DTD SVG 1.1//EN" "http://www.w3.org/Graphics/SVG/1.1/DTD/svg11.dtd">
<svg version="1.1" id="Calque_1" xmlns="http://www.w3.org/2000/svg" xmlns:xlink="http://www.w3.org/1999/xlink" x="0px" y="0px"
	 width="590.416px" height="588.5px" viewBox="0 0 590.416 588.5" enable-background="new 0 0 590.416 588.5" xml:space="preserve">
<line fill="none" stroke="#FFFFFF" stroke-miterlimit="10" x1="11.746" y1="0" x2="11.746" y2="590.1"/>
<line fill="none" stroke="#FFFFFF" stroke-miterlimit="10" x1="27.441" y1="0" x2="27.441" y2="590.1"/>
<line fill="none" stroke="#FFFFFF" stroke-miterlimit="10" x1="43.136" y1="0" x2="43.136" y2="590.1"/>
<line fill="none" stroke="#FFFFFF" stroke-width="2" stroke-miterlimit="10" x1="58.83" y1="0" x2="58.83" y2="590.1"/>
<line fill="none" stroke="#FFFFFF" stroke-miterlimit="10" x1="73.476" y1="0" x2="73.476" y2="590.1"/>
<line fill="none" stroke="#FFFFFF" stroke-miterlimit="10" x1="89.171" y1="0" x2="89.171" y2="590.1"/>
<line fill="none" stroke="#FFFFFF" stroke-miterlimit="10" x1="104.866" y1="0" x2="104.866" y2="590.1"/>
<line fill="none" stroke="#FFFFFF" stroke-width="2" stroke-miterlimit="10" x1="120.56" y1="0" x2="120.56" y2="590.1"/>
<line fill="none" stroke="#FFFFFF" stroke-miterlimit="10" x1="135.205" y1="0" x2="135.205" y2="590.1"/>
<line fill="none" stroke="#FFFFFF" stroke-miterlimit="10" x1="150.899" y1="0" x2="150.899" y2="590.1"/>
<line fill="none" stroke="#FFFFFF" stroke-miterlimit="10" x1="166.595" y1="0" x2="166.595" y2="590.1"/>
<line fill="none" stroke="#FFFFFF" stroke-width="2" stroke-miterlimit="10" x1="182.289" y1="0" x2="182.289" y2="590.1"/>
<line fill="none" stroke="#FFFFFF" stroke-miterlimit="10" x1="196.934" y1="0" x2="196.934" y2="590.1"/>
<line fill="none" stroke="#FFFFFF" stroke-miterlimit="10" x1="212.628" y1="0" x2="212.628" y2="590.1"/>
<line fill="none" stroke="#FFFFFF" stroke-miterlimit="10" x1="228.322" y1="0" x2="228.322" y2="590.1"/>
<line fill="none" stroke="#FFFFFF" stroke-width="2" stroke-miterlimit="10" x1="244.018" y1="0" x2="244.018" y2="590.1"/>
<line fill="none" stroke="#FFFFFF" stroke-miterlimit="10" x1="258.664" y1="0" x2="258.664" y2="590.1"/>
<line fill="none" stroke="#FFFFFF" stroke-miterlimit="10" x1="274.358" y1="0" x2="274.358" y2="590.1"/>
<line fill="none" stroke="#FFFFFF" stroke-miterlimit="10" x1="290.054" y1="0" x2="290.054" y2="590.1"/>
<line fill="none" stroke="#FFFFFF" stroke-width="2" stroke-miterlimit="10" x1="305.747" y1="0" x2="305.747" y2="590.1"/>
<line fill="none" stroke="#FFFFFF" stroke-miterlimit="10" x1="320.393" y1="0" x2="320.393" y2="590.1"/>
<line fill="none" stroke="#FFFFFF" stroke-miterlimit="10" x1="336.086" y1="0" x2="336.086" y2="590.1"/>
<line fill="none" stroke="#FFFFFF" stroke-miterlimit="10" x1="351.781" y1="0" x2="351.781" y2="590.1"/>
<line fill="none" stroke="#FFFFFF" stroke-width="2" stroke-miterlimit="10" x1="367.478" y1="0" x2="367.478" y2="590.1"/>
<line fill="none" stroke="#FFFFFF" stroke-miterlimit="10" x1="382.122" y1="0" x2="382.122" y2="590.1"/>
<line fill="none" stroke="#FFFFFF" stroke-miterlimit="10" x1="397.815" y1="0" x2="397.815" y2="590.1"/>
<line fill="none" stroke="#FFFFFF" stroke-miterlimit="10" x1="413.51" y1="0" x2="413.51" y2="590.1"/>
<line fill="none" stroke="#FFFFFF" stroke-width="2" stroke-miterlimit="10" x1="429.207" y1="0" x2="429.207" y2="590.1"/>
<line fill="none" stroke="#FFFFFF" stroke-miterlimit="10" x1="443.852" y1="0" x2="443.852" y2="590.1"/>
<line fill="none" stroke="#FFFFFF" stroke-miterlimit="10" x1="459.546" y1="0" x2="459.546" y2="590.1"/>
<line fill="none" stroke="#FFFFFF" stroke-miterlimit="10" x1="475.239" y1="0" x2="475.239" y2="590.1"/>
<line fill="none" stroke="#FFFFFF" stroke-width="2" stroke-miterlimit="10" x1="490.938" y1="0" x2="490.938" y2="590.1"/>
<line fill="none" stroke="#FFFFFF" stroke-miterlimit="10" x1="505.582" y1="0" x2="505.582" y2="590.1"/>
<line fill="none" stroke="#FFFFFF" stroke-miterlimit="10" x1="521.275" y1="0" x2="521.275" y2="590.1"/>
<line fill="none" stroke="#FFFFFF" stroke-miterlimit="10" x1="536.97" y1="0" x2="536.97" y2="590.1"/>
<line fill="none" stroke="#FFFFFF" stroke-width="2" stroke-miterlimit="10" x1="552.667" y1="0" x2="552.667" y2="590.1"/>
<line fill="none" stroke="#FFFFFF" stroke-miterlimit="10" x1="567.312" y1="0" x2="567.312" y2="590.1"/>
<line fill="none" stroke="#FFFFFF" stroke-miterlimit="10" x1="583.006" y1="0" x2="583.006" y2="590.1"/>
<line fill="none" stroke="#FFFFFF" stroke-miterlimit="10" x1="590.416" y1="0" x2="0.316" y2="0"/>
<line fill="none" stroke="#FFFFFF" stroke-miterlimit="10" x1="590.416" y1="15.695" x2="0.316" y2="15.695"/>
<line fill="none" stroke="#FFFFFF" stroke-miterlimit="10" x1="590.416" y1="31.39" x2="0.316" y2="31.39"/>
<line fill="none" stroke="#FFFFFF" stroke-width="2" stroke-miterlimit="10" x1="590.416" y1="47.084" x2="0.316" y2="47.084"/>
<line fill="none" stroke="#FFFFFF" stroke-miterlimit="10" x1="590.416" y1="61.728" x2="0.316" y2="61.728"/>
<line fill="none" stroke="#FFFFFF" stroke-miterlimit="10" x1="590.416" y1="77.423" x2="0.316" y2="77.423"/>
<line fill="none" stroke="#FFFFFF" stroke-miterlimit="10" x1="590.416" y1="93.117" x2="0.316" y2="93.117"/>
<line fill="none" stroke="#FFFFFF" stroke-width="2" stroke-miterlimit="10" x1="590.416" y1="108.812" x2="0.316" y2="108.812"/>
<line fill="none" stroke="#FFFFFF" stroke-miterlimit="10" x1="590.416" y1="123.459" x2="0.316" y2="123.459"/>
<line fill="none" stroke="#FFFFFF" stroke-miterlimit="10" x1="590.416" y1="139.154" x2="0.316" y2="139.154"/>
<line fill="none" stroke="#FFFFFF" stroke-miterlimit="10" x1="590.416" y1="154.849" x2="0.316" y2="154.849"/>
<line fill="none" stroke="#FFFFFF" stroke-width="2" stroke-miterlimit="10" x1="590.416" y1="170.543" x2="0.316" y2="170.543"/>
<line fill="none" stroke="#FFFFFF" stroke-miterlimit="10" x1="590.416" y1="185.187" x2="0.316" y2="185.187"/>
<line fill="none" stroke="#FFFFFF" stroke-miterlimit="10" x1="590.416" y1="200.882" x2="0.316" y2="200.882"/>
<line fill="none" stroke="#FFFFFF" stroke-miterlimit="10" x1="590.416" y1="216.576" x2="0.316" y2="216.576"/>
<line fill="none" stroke="#FFFFFF" stroke-width="2" stroke-miterlimit="10" x1="590.416" y1="232.271" x2="0.316" y2="232.271"/>
<line fill="none" stroke="#FFFFFF" stroke-miterlimit="10" x1="590.416" y1="246.915" x2="0.316" y2="246.915"/>
<line fill="none" stroke="#FFFFFF" stroke-miterlimit="10" x1="590.416" y1="262.609" x2="0.316" y2="262.609"/>
<line fill="none" stroke="#FFFFFF" stroke-miterlimit="10" x1="590.416" y1="278.305" x2="0.316" y2="278.305"/>
<line fill="none" stroke="#FFFFFF" stroke-width="2" stroke-miterlimit="10" x1="590.416" y1="293.999" x2="0.316" y2="293.999"/>
<line fill="none" stroke="#FFFFFF" stroke-miterlimit="10" x1="590.416" y1="308.646" x2="0.316" y2="308.646"/>
<line fill="none" stroke="#FFFFFF" stroke-miterlimit="10" x1="590.416" y1="324.34" x2="0.316" y2="324.34"/>
<line fill="none" stroke="#FFFFFF" stroke-miterlimit="10" x1="590.416" y1="340.033" x2="0.316" y2="340.033"/>
<line fill="none" stroke="#FFFFFF" stroke-width="2" stroke-miterlimit="10" x1="590.416" y1="355.73" x2="0.316" y2="355.73"/>
<line fill="none" stroke="#FFFFFF" stroke-miterlimit="10" x1="590.416" y1="370.376" x2="0.316" y2="370.376"/>
<line fill="none" stroke="#FFFFFF" stroke-miterlimit="10" x1="590.416" y1="386.069" x2="0.316" y2="386.069"/>
<line fill="none" stroke="#FFFFFF" stroke-miterlimit="10" x1="590.416" y1="401.764" x2="0.316" y2="401.764"/>
<line fill="none" stroke="#FFFFFF" stroke-width="2" stroke-miterlimit="10" x1="590.416" y1="417.461" x2="0.316" y2="417.461"/>
<line fill="none" stroke="#FFFFFF" stroke-miterlimit="10" x1="590.416" y1="432.105" x2="0.316" y2="432.105"/>
<line fill="none" stroke="#FFFFFF" stroke-miterlimit="10" x1="590.416" y1="447.8" x2="0.316" y2="447.8"/>
<line fill="none" stroke="#FFFFFF" stroke-miterlimit="10" x1="590.416" y1="463.493" x2="0.316" y2="463.493"/>
<line fill="none" stroke="#FFFFFF" stroke-width="2" stroke-miterlimit="10" x1="590.416" y1="479.19" x2="0.316" y2="479.19"/>
<line fill="none" stroke="#FFFFFF" stroke-miterlimit="10" x1="590.416" y1="493.836" x2="0.316" y2="493.836"/>
<line fill="none" stroke="#FFFFFF" stroke-miterlimit="10" x1="590.416" y1="509.529" x2="0.316" y2="509.529"/>
<line fill="none" stroke="#FFFFFF" stroke-miterlimit="10" x1="590.416" y1="525.224" x2="0.316" y2="525.224"/>
<line fill="none" stroke="#FFFFFF" stroke-width="2" stroke-miterlimit="10" x1="590.416" y1="540.921" x2="0.316" y2="540.921"/>
<line fill="none" stroke="#FFFFFF" stroke-miterlimit="10" x1="590.416" y1="555.565" x2="0.316" y2="555.565"/>
<line fill="none" stroke="#FFFFFF" stroke-miterlimit="10" x1="590.416" y1="571.26" x2="0.316" y2="571.26"/>
<line fill="none" stroke="#FFFFFF" stroke-miterlimit="10" x1="590.416" y1="586.953" x2="0.316" y2="586.953"/>
</svg>
