<?xml version="1.0" encoding="utf-8"?>
<!-- Generator: Adobe Illustrator 16.0.0, SVG Export Plug-In . SVG Version: 6.00 Build 0)  -->
<!DOCTYPE svg PUBLIC "-//W3C//DTD SVG 1.1//EN" "http://www.w3.org/Graphics/SVG/1.1/DTD/svg11.dtd">
<svg version="1.1" id="Calque_1" xmlns="http://www.w3.org/2000/svg" xmlns:xlink="http://www.w3.org/1999/xlink" x="0px" y="0px"
	 width="127.45px" height="86.319px" viewBox="0 0 127.45 86.319" enable-background="new 0 0 127.45 86.319" xml:space="preserve">
<g>
	<rect x="85.977" y="7.983" fill="#FFFFFF" width="38.623" height="25.569"/>
	<g>
		<path fill="#020202" d="M122.632,32.024H87.944V9.511h34.688V32.024z M88.48,31.488h33.615v-21.44H88.48V31.488z"/>
	</g>
	<path d="M95.878,17.139c-0.692,0-1.087-0.552-1.44-1.045c-0.06-0.083-0.119-0.167-0.179-0.247
		c-0.053-0.069-0.103-0.135-0.149-0.198c-0.467-0.628-0.625-0.839-1.38-0.636c-0.33,0.088-1.034,0.442-1.282,0.624l-0.212-0.288
		c0.279-0.206,1.023-0.58,1.4-0.681c0.991-0.267,1.28,0.123,1.761,0.768c0.046,0.062,0.094,0.127,0.147,0.195
		c0.062,0.083,0.123,0.168,0.185,0.255c0.369,0.516,0.717,1.002,1.365,0.873c0.27-0.054,0.517-0.308,0.757-0.554
		c0.203-0.208,0.412-0.424,0.653-0.537c0.742-0.35,1.455-0.003,2.145,0.331c0.519,0.252,1.056,0.511,1.604,0.479
		c0.636-0.039,1.217-0.254,1.833-0.482c0.578-0.214,1.176-0.436,1.827-0.5c0.345-0.034,0.705-0.022,1.052-0.011
		c0.133,0.004,0.266,0.009,0.396,0.01c0.647,0.008,1.116,0.178,1.613,0.359c0.267,0.097,0.542,0.197,0.856,0.274
		c0.86,0.211,1.545,0.12,2.27,0.023c0.417-0.056,0.849-0.114,1.342-0.121c0.297-0.003,0.636,0.054,0.961,0.111
		c0.911,0.16,1.53,0.221,1.827-0.349c0.062-0.119,0.061-0.281,0.06-0.438c0-0.283-0.002-0.709,0.536-0.759
		c0.278-0.026,0.54,0.268,0.854,0.655c0.069,0.084,0.133,0.165,0.172,0.201c0.095,0.091,0.18,0.187,0.261,0.278
		c0.24,0.272,0.427,0.488,0.777,0.479l0.008,0.358c-0.512,0.012-0.8-0.314-1.053-0.601c-0.076-0.087-0.155-0.176-0.238-0.256
		c-0.055-0.052-0.124-0.137-0.204-0.234c-0.116-0.144-0.427-0.525-0.544-0.525l0,0c-0.188,0.018-0.211,0.063-0.211,0.402
		c0.001,0.19,0.002,0.406-0.101,0.604c-0.441,0.845-1.377,0.681-2.206,0.536c-0.323-0.057-0.628-0.111-0.894-0.106
		c-0.472,0.007-0.893,0.063-1.3,0.118c-0.759,0.102-1.476,0.197-2.402-0.03c-0.333-0.082-0.617-0.185-0.893-0.285
		c-0.467-0.17-0.909-0.331-1.495-0.337c-0.132-0.002-0.268-0.006-0.404-0.011c-0.335-0.011-0.683-0.022-1.004,0.009
		c-0.605,0.06-1.181,0.274-1.738,0.48c-0.613,0.227-1.246,0.462-1.936,0.504c-0.641,0.039-1.221-0.242-1.781-0.513
		c-0.67-0.325-1.249-0.606-1.837-0.33c-0.182,0.086-0.36,0.27-0.549,0.464c-0.278,0.285-0.565,0.579-0.943,0.655
		C96.063,17.13,95.967,17.139,95.878,17.139z"/>
	<path d="M100.565,20.612c-0.071,0-0.146-0.007-0.228-0.022c-0.386-0.072-0.63-0.393-0.845-0.675
		c-0.183-0.242-0.357-0.471-0.577-0.499c-0.258-0.033-0.453,0.112-0.679,0.28c-0.303,0.226-0.68,0.506-1.247,0.25l0.146-0.326
		c0.376,0.169,0.602,0,0.888-0.212c0.251-0.187,0.535-0.397,0.936-0.348c0.369,0.046,0.598,0.347,0.817,0.637
		c0.192,0.253,0.375,0.493,0.626,0.54c0.349,0.066,0.542-0.082,0.787-0.269c0.179-0.137,0.383-0.293,0.665-0.364
		c0.375-0.096,0.749,0.035,1.078,0.15c0.15,0.052,0.291,0.101,0.421,0.127c1.051,0.208,2.231,0.162,3.375,0.118
		c0.458-0.018,0.932-0.037,1.381-0.037c0.001,0,0.002,0,0.002,0c0.282,0,0.675,0.051,1.128,0.11
		c1.119,0.145,2.652,0.344,3.053-0.214l0.291,0.208c-0.526,0.732-2.114,0.526-3.39,0.36c-0.442-0.057-0.823-0.106-1.083-0.106
		c0,0,0,0-0.001,0c-0.442,0-0.892,0.018-1.368,0.037c-1.163,0.044-2.366,0.091-3.458-0.125c-0.155-0.03-0.315-0.086-0.47-0.14
		c-0.295-0.103-0.601-0.21-0.872-0.141c-0.212,0.053-0.37,0.174-0.536,0.302C101.186,20.423,100.938,20.612,100.565,20.612z"/>
	<path d="M106.038,24.752c-0.223,0-0.446-0.013-0.67-0.045c-0.302-0.043-0.619-0.072-0.955-0.101
		c-0.471-0.041-0.957-0.084-1.402-0.174c-0.265-0.053-0.492-0.179-0.712-0.3c-0.329-0.181-0.613-0.337-0.971-0.247
		c-0.081,0.021-0.172,0.146-0.26,0.268c-0.153,0.21-0.342,0.471-0.682,0.523c-0.494,0.074-0.855-0.307-1.175-0.642
		c-0.158-0.166-0.307-0.322-0.44-0.389c-0.575-0.29-1.083-0.104-1.673,0.11c-0.318,0.115-0.646,0.234-1.008,0.287l-0.251,0.036
		l0.05-0.248c0.006-0.029,0.024-0.118,0.015-0.166l0.352-0.067c0.002,0.016,0.004,0.032,0.006,0.049
		c0.246-0.057,0.483-0.143,0.714-0.227c0.612-0.222,1.244-0.452,1.957-0.093c0.188,0.095,0.358,0.273,0.537,0.461
		c0.272,0.286,0.555,0.582,0.863,0.535c0.191-0.029,0.315-0.199,0.446-0.379c0.126-0.173,0.255-0.352,0.46-0.404
		c0.496-0.126,0.886,0.089,1.232,0.28c0.206,0.113,0.4,0.22,0.611,0.263c0.425,0.085,0.901,0.128,1.362,0.168
		c0.325,0.029,0.663,0.059,0.975,0.104c0.651,0.094,1.328,0.01,1.983-0.072c0.425-0.053,0.865-0.108,1.3-0.116
		c0.264-0.004,0.51-0.098,0.747-0.188c0.199-0.076,0.386-0.147,0.58-0.166c0.383-0.036,0.513,0.029,0.729,0.158
		c0.096,0.057,0.216,0.129,0.411,0.211c0.565,0.237,1.048,0.115,1.608-0.026c0.26-0.066,0.531-0.134,0.821-0.167
		c1.246-0.14,2.705-0.019,4.336,0.361l-0.081,0.348c-1.592-0.37-3.01-0.489-4.215-0.354c-0.267,0.03-0.524,0.095-0.774,0.158
		c-0.569,0.144-1.159,0.293-1.834,0.009c-0.219-0.091-0.355-0.174-0.456-0.233c-0.17-0.102-0.227-0.137-0.511-0.109
		c-0.146,0.014-0.311,0.077-0.487,0.144c-0.254,0.096-0.541,0.206-0.868,0.211c-0.417,0.007-0.847,0.061-1.262,0.112
		C106.985,24.693,106.513,24.751,106.038,24.752z"/>
	<path d="M109.375,28.328c-0.283,0-0.568-0.16-0.824-0.305c-0.159-0.089-0.323-0.182-0.414-0.188
		c-0.236-0.016-0.503,0.071-0.785,0.162c-0.263,0.085-0.535,0.172-0.819,0.191c-0.803,0.054-1.05-0.117-1.392-0.353
		c-0.151-0.103-0.322-0.221-0.581-0.343c-0.309-0.146-0.711,0.081-1.066,0.279c-0.321,0.181-0.68,0.382-0.903,0.161
		c-0.117,0.002-0.25,0.027-0.38,0.051c-0.291,0.054-0.593,0.11-0.797-0.079c-0.121-0.113-0.178-0.285-0.174-0.533
		c-0.042-0.014-0.077-0.032-0.108-0.047c-0.032-0.016-0.06-0.029-0.082-0.034l0.071-0.351c0.068,0.014,0.124,0.041,0.169,0.063
		c0.057,0.028,0.083,0.04,0.122,0.036l0.219-0.022l-0.024,0.219c-0.032,0.294,0.024,0.381,0.05,0.405
		c0.073,0.066,0.294,0.026,0.489-0.01c0.18-0.034,0.366-0.068,0.547-0.054l0.091,0.007l0.047,0.078
		c0.004,0.006,0.006,0.008,0.006,0.008c0.066,0.022,0.326-0.124,0.482-0.211c0.409-0.229,0.917-0.516,1.394-0.291
		c0.285,0.134,0.476,0.266,0.63,0.372c0.315,0.217,0.488,0.336,1.165,0.291c0.24-0.016,0.491-0.097,0.733-0.175
		c0.302-0.097,0.615-0.197,0.918-0.178c0.171,0.012,0.354,0.114,0.565,0.233c0.253,0.143,0.54,0.304,0.739,0.247
		c0.087-0.025,0.161-0.095,0.226-0.213l0.314,0.172c-0.112,0.204-0.261,0.333-0.441,0.384
		C109.501,28.319,109.439,28.328,109.375,28.328z"/>
</g>
<g>
	<path fill-rule="evenodd" clip-rule="evenodd" fill="#FFFFFF" d="M50.531,14.529c-2.476,2.907-4.849,6.512-4.873,9.207
		c-0.009,1.014,0.315,1.899,1.091,2.569c1.118,0.965,2.348,1.306,3.573,1.308c1.791,0.002,3.568-0.72,4.96-1.276
		c2.344-0.938,28.258-12.19,28.258-12.19c0.249-0.125,0.203-0.281-0.11-0.204c-0.126,0.032-28.21,7.643-28.21,7.643
		c-0.542,0.152-1.096,0.231-1.635,0.234c-2.158,0.013-4.079-1.185-4.063-3.71C49.528,17.122,49.831,15.931,50.531,14.529
		L50.531,14.529z"/>
</g>
<g>
	<g>
		<path fill="#FFFFFF" d="M32.128,49.753c0-1.411-1.145-2.557-2.558-2.557c-0.571,0-1.092,0.196-1.518,0.513h0.863
			c1.126,0,2.043,0.917,2.043,2.044c0,1.128-0.917,2.045-2.043,2.045h-0.862c0.425,0.317,0.947,0.512,1.518,0.512
			C30.983,52.311,32.128,51.166,32.128,49.753z"/>
		<path fill="#FFFFFF" d="M12.693,49.753c0,0.809,0.654,1.461,1.46,1.461h14.859c0.807,0,1.46-0.653,1.46-1.461
			c0-0.807-0.654-1.46-1.46-1.46h-14.86C13.347,48.294,12.693,48.947,12.693,49.753z"/>
		<path fill="#FFFFFF" d="M13.984,47.197c-1.412,0-2.558,1.146-2.558,2.557s1.145,2.557,2.558,2.557c0.57,0,1.094-0.195,1.519-0.512
			h-1.129c-1.129,0-2.046-0.917-2.046-2.045s0.917-2.044,2.046-2.044h1.129C15.078,47.393,14.554,47.197,13.984,47.197z"/>
		<path fill="#FFFFFF" d="M32.128,58.206c0-1.411-1.145-2.557-2.558-2.557c-0.571,0-1.092,0.196-1.518,0.513h0.863
			c1.126,0,2.043,0.917,2.043,2.044c0,1.128-0.917,2.044-2.043,2.044h-0.862c0.425,0.317,0.947,0.512,1.518,0.512
			C30.983,60.762,32.128,59.618,32.128,58.206z"/>
		<path fill="#FFFFFF" d="M12.693,58.206c0,0.808,0.654,1.461,1.46,1.461h14.859c0.807,0,1.46-0.653,1.46-1.461
			c0-0.808-0.654-1.46-1.46-1.46h-14.86C13.347,56.746,12.693,57.398,12.693,58.206z"/>
		<path fill="#FFFFFF" d="M13.984,55.648c-1.412,0-2.558,1.145-2.558,2.557s1.145,2.557,2.558,2.557c0.57,0,1.094-0.195,1.519-0.512
			h-1.129c-1.129,0-2.046-0.917-2.046-2.044c0-1.127,0.917-2.044,2.046-2.044h1.129C15.078,55.845,14.554,55.648,13.984,55.648z"/>
		<path fill="#FFFFFF" d="M32.128,66.657c0-1.412-1.145-2.557-2.558-2.557c-0.571,0-1.092,0.195-1.518,0.513h0.863
			c1.126,0,2.043,0.916,2.043,2.044c0,1.128-0.917,2.044-2.043,2.044h-0.862c0.425,0.316,0.947,0.512,1.518,0.512
			C30.983,69.213,32.128,68.07,32.128,66.657z"/>
		<path fill="#FFFFFF" d="M12.693,66.657c0,0.808,0.654,1.46,1.46,1.46h14.859c0.807,0,1.46-0.653,1.46-1.46
			c0-0.808-0.654-1.461-1.46-1.461h-14.86C13.347,65.198,12.693,65.85,12.693,66.657z"/>
		<path fill="#FFFFFF" d="M13.984,64.101c-1.412,0-2.558,1.145-2.558,2.557c0,1.413,1.145,2.557,2.558,2.557
			c0.57,0,1.094-0.195,1.519-0.511h-1.129c-1.129,0-2.046-0.918-2.046-2.046c0-1.126,0.917-2.044,2.046-2.044h1.129
			C15.078,64.296,14.554,64.101,13.984,64.101z"/>
		<path fill="#FFFFFF" d="M29.571,77.666c1.412,0,2.557-1.144,2.557-2.557c0-1.411-1.145-2.557-2.557-2.557
			c-0.571,0-1.093,0.195-1.518,0.512h0.862c1.126,0,2.044,0.916,2.044,2.044c0,1.127-0.917,2.044-2.044,2.044h-0.862
			C28.479,77.47,29,77.666,29.571,77.666z"/>
		<path fill="#FFFFFF" d="M11.426,75.108c0,1.413,1.145,2.557,2.558,2.557c0.57,0,1.094-0.195,1.519-0.512h-1.129
			c-1.129,0-2.046-0.916-2.046-2.044c0-1.128,0.917-2.044,2.046-2.044h1.129c-0.425-0.316-0.949-0.512-1.519-0.512
			C12.572,72.552,11.426,73.697,11.426,75.108z"/>
		<path fill="#FFFFFF" d="M25.955,79.831c-0.488-0.578-0.998-1.094-1.515-1.572c2.471-1.286,4.554-1.569,4.614-1.577
			c0.867-0.104,1.496-0.887,1.386-1.757c-0.101-0.87-0.888-1.493-1.757-1.39c-0.192,0.023-3.453,0.44-6.979,2.636
			c-3.527-2.196-6.788-2.613-6.979-2.636c-0.868-0.102-1.65,0.518-1.754,1.386c-0.008,0.064-0.011,0.126-0.011,0.19
			c0,0.789,0.591,1.473,1.393,1.571c0.034,0.004,2.129,0.281,4.616,1.576c-0.518,0.479-1.027,0.995-1.516,1.574
			c-0.25,0.298-0.373,0.659-0.373,1.02c0,0.451,0.191,0.899,0.563,1.213c0.67,0.563,1.669,0.479,2.233-0.19
			c0.58-0.688,1.199-1.277,1.828-1.799c0.629,0.522,1.247,1.111,1.828,1.799c0.565,0.668,1.564,0.753,2.233,0.19
			C26.435,81.5,26.52,80.501,25.955,79.831z"/>
	</g>
</g>
<g>
	<path fill="#010101" d="M37.941,17.35c-5.74,5.741-10.027,7.387-14.317,11.674c-3.043,3.044-1.833,4.478-6.13,8.775
		c-4.236,4.235-6.316,3.555-6.316,3.555s-3.386-1.655-4.045-4.825c0,0,1.9,0.553,5.772-3.321c1.429-1.423,4.071-1.786,5.482-2.943
		c1.776-1.455,3.23-2.933,3.581-3.284c0.682-0.68,4.916-3.034,8.947-6.006c1.108-0.817,0.425-2.8,1.728-4.105
		c1.303-1.305,4.17-0.753,5.109-1.691C46.074,6.857,41.379,1.43,41.379,1.43S48.087,7.208,37.941,17.35z"/>
	<path fill="#FFFFFF" d="M12.085,32.419c1.193-1.191,3.744-1.714,5.095-2.799c1.274-1.016,2.208-1.702,3.761-3.255
		c2.032-2.032,5.259-3.767,8.743-6.157c0.981-0.676,0.956-3.597,1.961-4.397c1.047-0.837,4.691-1.133,5.716-2.157
		c6.709-6.709,3.111-12.286,3.111-12.286s-3.284-1.904-8.155,2.965c-0.349,0.349-0.757,0.677-1.212,0.987l0.511,2.015
		c0.113,0.449-0.143,0.91-0.574,1.03c-0.43,0.115-0.874-0.149-0.983-0.6l-0.406-1.597c-0.416,0.211-0.859,0.411-1.317,0.6
		l0.483,1.906c0.114,0.448-0.144,0.906-0.574,1.024c-0.43,0.12-0.873-0.146-0.986-0.596L26.81,7.34
		c-0.444,0.151-0.896,0.296-1.361,0.432l0.478,1.88c0.117,0.449-0.143,0.908-0.574,1.028c-0.43,0.118-0.871-0.148-0.983-0.599
		l-0.478-1.886c-0.471,0.121-0.949,0.232-1.43,0.337l0.468,1.837c0.112,0.449-0.141,0.91-0.573,1.028
		c-0.431,0.119-0.873-0.149-0.988-0.6l-0.493-1.937c-0.469,0.09-0.934,0.175-1.397,0.251l0.447,1.759
		c0.113,0.45-0.143,0.909-0.574,1.028c-0.43,0.115-0.872-0.151-0.985-0.598l-0.492-1.934c-0.497,0.074-0.979,0.141-1.445,0.203
		l0.458,1.805c0.111,0.449-0.143,0.909-0.573,1.026c-0.432,0.122-0.87-0.148-0.985-0.597l-0.516-2.037
		c-2.386,0.263-4.119,0.358-4.452,0.359c-3.732,0.069-2.948,4.784,0.579,4.777c0,1.834-0.153,4.162-1.618,5.626
		c-5.386,5.386-8.271,0.978-8.985,3.292c-0.822,2.656-0.131,3.539,2.032,5.963c1.297,1.454,3.821,5.468,3.821,5.468
		C6.068,35.145,7.922,36.582,12.085,32.419z"/>
</g>
<g>
	<g>
		<g>
			<path fill="#010101" d="M115.448,64.323c-0.706-0.704-1.851-0.704-2.557,0c-0.559,0.561-1.356,0.73-2.07,0.528
				c0.04,0.219,0.07,0.443,0.085,0.665c0.608,0.175,1.288,0.048,1.769-0.431c0.823-0.824,2.165-0.824,2.989,0
				c0.704,0.702,1.85,0.702,2.555,0c0.368-0.369,0.841-0.563,1.322-0.602c0.042-0.227,0.079-0.454,0.125-0.678
				c-0.447,0.012-0.891,0.18-1.229,0.519C117.614,65.147,116.271,65.147,115.448,64.323z"/>
			<path fill="#010101" d="M118.437,58.449c-0.823,0.824-2.166,0.824-2.989,0c-0.706-0.704-1.851-0.704-2.557,0
				c-0.823,0.824-2.165,0.824-2.988,0c-0.371-0.369-0.861-0.534-1.348-0.514c0.039,0.221,0.073,0.441,0.121,0.663
				c0.524,0.013,1.046,0.214,1.442,0.614c0.706,0.703,1.851,0.703,2.557,0c0.823-0.824,2.166-0.824,2.988,0
				c0.706,0.703,1.851,0.703,2.556,0c0.623-0.624,1.542-0.774,2.311-0.454c0.019-0.192,0.041-0.387,0.056-0.576
				C119.898,57.795,119.021,57.864,118.437,58.449z"/>
			<path fill="#010101" d="M112.676,70.956c0.823-0.824,2.165-0.824,2.989,0c0.704,0.704,1.85,0.704,2.555,0
				c0.282-0.282,0.629-0.462,0.991-0.549c-0.001-0.211-0.011-0.424-0.026-0.637c-0.272,0.083-0.534,0.208-0.748,0.426
				c-0.823,0.823-2.166,0.823-2.989,0c-0.706-0.705-1.851-0.705-2.557,0c-0.823,0.823-2.165,0.823-2.988,0
				c-0.001,0-0.001,0-0.002-0.002c-0.046,0.168-0.075,0.332-0.107,0.496c0.115,0.077,0.226,0.164,0.326,0.266
				C110.825,71.661,111.971,71.661,112.676,70.956z"/>
			<path fill="#010101" d="M118.437,60.407c-0.823,0.824-2.166,0.824-2.989,0c-0.706-0.703-1.851-0.703-2.557,0
				c-0.823,0.824-2.165,0.824-2.988,0c-0.243-0.243-0.542-0.37-0.854-0.446c0.08,0.24,0.181,0.476,0.275,0.714
				c0.291,0.102,0.565,0.26,0.796,0.493c0.706,0.703,1.851,0.703,2.556,0c0.824-0.824,2.165-0.824,2.989,0
				c0.706,0.703,1.852,0.703,2.556,0c0.551-0.553,1.339-0.726,2.046-0.536c0.036-0.208,0.073-0.413,0.107-0.625
				C119.725,59.755,118.962,59.885,118.437,60.407z"/>
			<path fill="#010101" d="M118.437,62.364c-0.823,0.824-2.166,0.824-2.989,0c-0.706-0.703-1.851-0.703-2.557,0
				c-0.761,0.764-1.967,0.81-2.796,0.158c0.116,0.274,0.218,0.537,0.311,0.792c0.7,0.472,1.648,0.43,2.27-0.189
				c0.823-0.824,2.165-0.824,2.989,0c0.704,0.704,1.85,0.704,2.555,0c0.462-0.461,1.086-0.655,1.691-0.599
				c0.039-0.207,0.081-0.418,0.121-0.628C119.47,61.797,118.87,61.931,118.437,62.364z"/>
			<path fill="#010101" d="M112.676,73.895c0.823-0.826,2.165-0.826,2.989,0c0.704,0.703,1.85,0.703,2.555,0
				c0.15-0.152,0.321-0.264,0.497-0.359c0.086-0.237,0.158-0.485,0.223-0.737c-0.18,0.087-0.355,0.186-0.502,0.333
				c-0.823,0.825-2.166,0.825-2.989,0c-0.706-0.702-1.851-0.702-2.557,0c-0.823,0.825-2.165,0.825-2.988,0
				c-0.032-0.031-0.075-0.043-0.108-0.072c0.058,0.264,0.137,0.515,0.231,0.758c0.031,0.027,0.065,0.048,0.094,0.076
				C110.825,74.598,111.971,74.598,112.676,73.895z"/>
			<path fill="#010101" d="M111.028,47.286c-0.148,0.154-0.292,0.317-0.429,0.494c0.677,0.339,1.512,0.248,2.077-0.316
				c0.824-0.824,2.165-0.824,2.989,0c0.517,0.517,1.271,0.647,1.916,0.404c-0.183-0.198-0.373-0.384-0.565-0.554
				c-0.566,0.021-1.136-0.181-1.566-0.611c-0.706-0.703-1.851-0.703-2.555,0C112.386,47.209,111.684,47.401,111.028,47.286z"/>
			<path fill="#010101" d="M112.676,69.978c0.823-0.824,2.165-0.824,2.989,0c0.704,0.704,1.85,0.704,2.555,0
				c0.274-0.273,0.607-0.447,0.956-0.54c-0.012-0.217-0.018-0.429-0.021-0.641c-0.262,0.086-0.511,0.212-0.719,0.42
				c-0.824,0.825-2.166,0.825-2.989,0c-0.705-0.703-1.85-0.703-2.556,0c-0.745,0.746-1.911,0.81-2.737,0.206
				c-0.003,0.002-0.003,0.006-0.004,0.01c-0.058,0.155-0.099,0.301-0.147,0.451c0.039,0.034,0.08,0.06,0.116,0.096
				C110.825,70.682,111.971,70.682,112.676,69.978z"/>
			<path fill="#010101" d="M119.168,67.817c-0.266,0.083-0.521,0.21-0.731,0.421c-0.824,0.823-2.166,0.823-2.989,0
				c-0.705-0.704-1.851-0.704-2.557,0c-0.664,0.665-1.665,0.783-2.458,0.376c-0.052,0.156-0.106,0.318-0.167,0.483
				c0.709,0.579,1.747,0.563,2.409-0.098c0.823-0.824,2.166-0.824,2.988,0c0.706,0.704,1.851,0.704,2.556,0
				c0.266-0.267,0.587-0.436,0.925-0.532C119.146,68.247,119.16,68.033,119.168,67.817z"/>
			<path fill="#010101" d="M118.437,66.28c-0.823,0.824-2.166,0.824-2.989,0c-0.706-0.702-1.851-0.702-2.557,0
				c-0.548,0.55-1.328,0.725-2.031,0.539c-0.025,0.203-0.061,0.411-0.105,0.624c0.645,0.246,1.401,0.115,1.921-0.402
				c0.823-0.824,2.166-0.824,2.989,0c0.705,0.703,1.851,0.703,2.557,0c0.294-0.297,0.66-0.484,1.043-0.565
				c0.023-0.217,0.043-0.435,0.072-0.649C119.007,65.898,118.69,66.026,118.437,66.28z"/>
			<path fill="#010101" d="M118.437,67.259c-0.823,0.824-2.166,0.824-2.989,0c-0.706-0.704-1.851-0.704-2.557,0
				c-0.594,0.597-1.462,0.755-2.209,0.487c-0.044,0.184-0.081,0.361-0.139,0.553c0.686,0.376,1.552,0.301,2.132-0.278
				c0.823-0.824,2.165-0.824,2.989,0c0.704,0.702,1.85,0.702,2.555,0c0.275-0.277,0.611-0.45,0.961-0.542
				c0.014-0.219,0.027-0.437,0.048-0.652C118.94,66.906,118.663,67.033,118.437,67.259z"/>
			<path fill="#010101" d="M115.472,46.328c0.065,0.051,0.132,0.097,0.193,0.156c0.249,0.249,0.559,0.378,0.879,0.45
				C116.196,46.683,115.838,46.486,115.472,46.328z"/>
			<path fill="#010101" d="M115.448,48.661c-0.706-0.704-1.851-0.704-2.557,0c-0.801,0.803-2.096,0.818-2.924,0.052
				c-0.079,0.136-0.164,0.263-0.237,0.407c0.137,0.085,0.271,0.183,0.39,0.302c0.705,0.704,1.851,0.704,2.556,0
				c0.823-0.824,2.165-0.824,2.989,0c0.704,0.704,1.85,0.704,2.555,0c0.107-0.107,0.225-0.2,0.347-0.279
				c-0.082-0.129-0.166-0.259-0.253-0.383C117.487,49.474,116.232,49.446,115.448,48.661z"/>
			<path fill="#010101" d="M112.676,74.872c0.823-0.823,2.165-0.823,2.989,0c0.589,0.589,1.471,0.656,2.162,0.262
				c0.258-0.318,0.48-0.671,0.664-1.058c-0.017,0.015-0.037,0.02-0.054,0.036c-0.823,0.825-2.166,0.825-2.989,0
				c-0.706-0.704-1.851-0.704-2.557,0c-0.697,0.699-1.768,0.798-2.58,0.313c0.184,0.327,0.403,0.627,0.652,0.893
				C111.561,75.464,112.211,75.336,112.676,74.872z"/>
			<path fill="#010101" d="M112.676,72.914c0.823-0.824,2.165-0.824,2.989,0c0.704,0.704,1.85,0.704,2.555,0
				c0.234-0.234,0.514-0.393,0.806-0.495c0.046-0.223,0.084-0.451,0.113-0.681c-0.255,0.085-0.498,0.212-0.702,0.417
				c-0.823,0.824-2.166,0.824-2.989,0c-0.706-0.704-1.851-0.704-2.557,0c-0.823,0.824-2.165,0.824-2.988,0
				c-0.067-0.068-0.153-0.097-0.229-0.151c0.005,0.207,0.02,0.409,0.046,0.606c0.141,0.084,0.276,0.184,0.397,0.306
				C110.825,73.619,111.971,73.619,112.676,72.914z"/>
			<path fill="#010101" d="M118.437,56.492c-0.823,0.824-2.166,0.824-2.989,0c-0.706-0.704-1.851-0.704-2.557,0
				c-0.823,0.824-2.165,0.824-2.988,0c-0.428-0.427-1.013-0.563-1.57-0.472c0.01,0.211,0.036,0.426,0.055,0.637
				c0.619-0.069,1.259,0.123,1.73,0.595c0.706,0.704,1.851,0.704,2.557,0c0.823-0.824,2.166-0.824,2.988,0
				c0.706,0.704,1.851,0.704,2.556,0c0.652-0.654,1.629-0.78,2.417-0.396c0-0.209-0.015-0.41-0.022-0.615
				C119.921,55.835,119.029,55.9,118.437,56.492z"/>
			<path fill="#010101" d="M115.448,76.068c-0.706-0.702-1.851-0.702-2.557,0c-0.127,0.127-0.268,0.229-0.415,0.316
				c0.547,0.235,1.145,0.366,1.768,0.367c0.653,0.001,1.234-0.107,1.749-0.298C115.797,76.354,115.611,76.233,115.448,76.068z"/>
			<path fill="#010101" d="M112.676,46.486c0.264-0.265,0.583-0.436,0.923-0.53c-0.014,0-0.025-0.001-0.038-0.001
				c-0.799,0.048-1.559,0.429-2.24,1.044C111.808,47.02,112.303,46.858,112.676,46.486z"/>
			<path fill="#010101" d="M115.665,75.851c0.214,0.212,0.469,0.339,0.738,0.424c0.33-0.164,0.629-0.365,0.897-0.601
				c-0.654,0.111-1.35-0.08-1.853-0.582c-0.705-0.705-1.851-0.705-2.557,0c-0.416,0.415-0.965,0.62-1.513,0.615
				c0.231,0.195,0.481,0.367,0.746,0.511c0.198-0.088,0.388-0.205,0.551-0.366C113.499,75.028,114.841,75.028,115.665,75.851z"/>
			<path fill="#010101" d="M118.437,54.534c-0.823,0.825-2.166,0.825-2.989,0c-0.706-0.704-1.851-0.704-2.557,0
				c-0.823,0.825-2.165,0.825-2.988,0c-0.416-0.414-0.979-0.554-1.518-0.481c-0.019,0.216-0.042,0.431-0.052,0.651
				c0.635-0.087,1.3,0.103,1.787,0.59c0.705,0.704,1.851,0.704,2.556,0c0.823-0.824,2.165-0.824,2.989,0
				c0.704,0.704,1.85,0.704,2.555,0c0.617-0.617,1.524-0.771,2.288-0.464c-0.027-0.224-0.049-0.455-0.082-0.672
				C119.765,53.877,118.974,53.998,118.437,54.534z"/>
			<path fill="#010101" d="M115.448,50.618c-0.706-0.703-1.851-0.703-2.557,0c-0.823,0.824-2.165,0.824-2.988,0
				c-0.192-0.192-0.421-0.32-0.661-0.407c-0.073,0.191-0.139,0.391-0.204,0.591c0.397,0.078,0.775,0.271,1.082,0.578
				c0.705,0.703,1.851,0.703,2.556,0c0.823-0.824,2.165-0.824,2.989,0c0.704,0.703,1.85,0.703,2.555,0
				c0.345-0.346,0.782-0.538,1.232-0.594c-0.089-0.206-0.188-0.396-0.286-0.588c-0.266,0.083-0.518,0.21-0.729,0.421
				C117.614,51.442,116.271,51.442,115.448,50.618z"/>
			<path fill="#010101" d="M112.676,71.936c0.823-0.824,2.165-0.824,2.989,0c0.704,0.704,1.85,0.704,2.555,0
				c0.273-0.272,0.602-0.445,0.949-0.538c0.021-0.215,0.031-0.432,0.035-0.651c-0.28,0.082-0.544,0.209-0.766,0.429
				c-0.823,0.823-2.166,0.823-2.989,0c-0.706-0.705-1.851-0.705-2.557,0c-0.823,0.823-2.165,0.823-2.988,0
				c-0.052-0.053-0.119-0.072-0.173-0.115c-0.027,0.184-0.049,0.367-0.056,0.544c0.157,0.09,0.311,0.195,0.443,0.331
				C110.825,72.64,111.971,72.64,112.676,71.936z"/>
			<path fill="#010101" d="M118.437,52.576c-0.823,0.823-2.166,0.823-2.989,0c-0.706-0.703-1.851-0.703-2.557,0
				c-0.823,0.823-2.165,0.823-2.988,0c-0.337-0.334-0.775-0.5-1.217-0.517c-0.049,0.219-0.089,0.441-0.129,0.666
				c0.563-0.019,1.133,0.182,1.563,0.612c0.706,0.703,1.851,0.703,2.556,0c0.823-0.824,2.166-0.824,2.989,0
				c0.705,0.703,1.851,0.703,2.557,0c0.516-0.516,1.235-0.708,1.902-0.578c-0.058-0.23-0.125-0.45-0.194-0.67
				C119.396,52.025,118.845,52.168,118.437,52.576z"/>
			<path fill="#010101" d="M93.486,60.224c0.705,0.703,1.85,0.703,2.555,0c0.824-0.825,2.167-0.825,2.989,0
				c0.705,0.703,1.851,0.703,2.556,0c0.487-0.487,1.152-0.678,1.785-0.591c-0.008-0.22-0.032-0.436-0.051-0.651
				c-0.54-0.074-1.104,0.067-1.517,0.481c-0.824,0.825-2.167,0.825-2.989,0c-0.705-0.703-1.851-0.703-2.556,0
				c-0.822,0.825-2.166,0.825-2.988,0c-0.539-0.536-1.33-0.657-1.989-0.376c-0.034,0.218-0.055,0.448-0.081,0.672
				C91.963,59.452,92.87,59.606,93.486,60.224z"/>
			<path fill="#010101" d="M93.486,58.267c0.705,0.703,1.85,0.703,2.555,0c0.824-0.824,2.167-0.824,2.989,0
				c0.705,0.703,1.851,0.703,2.556,0c0.43-0.431,1-0.63,1.563-0.613c-0.039-0.224-0.08-0.446-0.129-0.665
				c-0.441,0.017-0.879,0.179-1.216,0.517c-0.823,0.824-2.166,0.824-2.989,0c-0.705-0.703-1.85-0.703-2.555,0
				c-0.823,0.824-2.167,0.824-2.989,0c-0.408-0.408-0.959-0.55-1.493-0.487c-0.069,0.22-0.136,0.439-0.195,0.669
				C92.25,57.557,92.97,57.749,93.486,58.267z"/>
			<path fill="#010101" d="M93.486,74.907c0.705,0.704,1.85,0.704,2.555,0c0.824-0.823,2.167-0.823,2.989,0
				c0.705,0.704,1.851,0.704,2.556,0c0.036-0.034,0.077-0.061,0.116-0.095c-0.048-0.149-0.087-0.296-0.147-0.45
				c-0.001-0.003-0.002-0.007-0.004-0.011c-0.825,0.605-1.992,0.54-2.737-0.206c-0.705-0.703-1.851-0.703-2.556,0
				c-0.822,0.825-2.166,0.825-2.988,0c-0.208-0.207-0.458-0.333-0.72-0.418c-0.002,0.209-0.009,0.423-0.02,0.64
				C92.88,74.46,93.212,74.633,93.486,74.907z"/>
			<path fill="#010101" d="M93.486,62.18c0.705,0.704,1.85,0.704,2.555,0c0.824-0.824,2.167-0.824,2.989,0
				c0.705,0.704,1.851,0.704,2.556,0c0.472-0.472,1.112-0.665,1.73-0.595c0.019-0.212,0.045-0.426,0.055-0.637
				c-0.556-0.091-1.142,0.044-1.569,0.473c-0.823,0.824-2.166,0.824-2.988,0c-0.706-0.704-1.852-0.704-2.557,0
				c-0.823,0.824-2.166,0.824-2.988,0c-0.593-0.593-1.485-0.656-2.179-0.252c-0.007,0.206-0.023,0.406-0.023,0.616
				C91.857,61.401,92.834,61.528,93.486,62.18z"/>
			<path fill="#010101" d="M93.486,64.139c0.705,0.703,1.85,0.703,2.555,0c0.824-0.824,2.167-0.824,2.989,0
				c0.705,0.703,1.851,0.703,2.556,0c0.398-0.399,0.919-0.6,1.443-0.614c0.049-0.221,0.082-0.441,0.122-0.663
				c-0.487-0.018-0.977,0.144-1.348,0.514c-0.823,0.824-2.166,0.824-2.988,0c-0.706-0.703-1.852-0.703-2.557,0
				c-0.823,0.824-2.166,0.824-2.988,0c-0.585-0.584-1.462-0.654-2.149-0.27c0.014,0.189,0.036,0.384,0.055,0.577
				C91.943,63.365,92.863,63.515,93.486,64.139z"/>
			<path fill="#010101" d="M95.162,51.864c0.32-0.073,0.631-0.202,0.879-0.451c0.061-0.06,0.128-0.105,0.192-0.156
				C95.869,51.415,95.509,51.612,95.162,51.864z"/>
			<path fill="#010101" d="M92.56,73.396c0.338,0.097,0.66,0.266,0.926,0.533c0.705,0.703,1.85,0.703,2.555,0
				c0.824-0.825,2.167-0.825,2.989,0c0.662,0.66,1.7,0.675,2.409,0.097c-0.062-0.165-0.116-0.326-0.167-0.482
				c-0.795,0.408-1.794,0.288-2.458-0.377c-0.706-0.705-1.852-0.705-2.557,0c-0.823,0.825-2.166,0.825-2.988,0
				c-0.211-0.21-0.466-0.338-0.732-0.421C92.546,72.96,92.559,73.176,92.56,73.396z"/>
			<path fill="#010101" d="M94.125,52.797c0.643,0.243,1.399,0.112,1.916-0.404c0.824-0.824,2.167-0.824,2.989,0
				c0.565,0.563,1.402,0.655,2.078,0.317c-0.138-0.177-0.283-0.341-0.43-0.495c-0.656,0.116-1.359-0.077-1.864-0.583
				c-0.705-0.703-1.851-0.703-2.556,0c-0.429,0.43-1,0.631-1.566,0.611C94.498,52.413,94.31,52.598,94.125,52.797z"/>
			<path fill="#010101" d="M93.486,72.949c0.705,0.703,1.85,0.703,2.555,0c0.824-0.824,2.167-0.824,2.989,0
				c0.583,0.58,1.449,0.654,2.133,0.279c-0.057-0.192-0.094-0.371-0.139-0.555c-0.747,0.269-1.615,0.111-2.21-0.487
				c-0.705-0.704-1.851-0.704-2.556,0c-0.822,0.824-2.166,0.824-2.988,0c-0.227-0.228-0.503-0.353-0.792-0.434
				c0.02,0.216,0.033,0.436,0.047,0.654C92.876,72.499,93.211,72.672,93.486,72.949z"/>
			<path fill="#010101" d="M93.486,71.971c0.705,0.703,1.85,0.703,2.555,0c0.824-0.824,2.167-0.824,2.989,0
				c0.52,0.517,1.276,0.648,1.922,0.403c-0.045-0.213-0.08-0.423-0.107-0.623c-0.702,0.183-1.483,0.01-2.031-0.541
				c-0.705-0.704-1.85-0.704-2.555,0c-0.823,0.824-2.167,0.824-2.989,0c-0.253-0.253-0.571-0.384-0.899-0.454
				c0.027,0.215,0.049,0.431,0.072,0.649C92.825,71.488,93.19,71.674,93.486,71.971z"/>
			<path fill="#010101" d="M101.803,78.06c-0.823,0.826-2.166,0.826-2.988,0c-0.706-0.702-1.852-0.702-2.557,0
				c-0.823,0.826-2.166,0.826-2.988,0c-0.148-0.147-0.325-0.245-0.502-0.331c0.063,0.252,0.134,0.499,0.222,0.736
				c0.177,0.096,0.347,0.208,0.496,0.359c0.706,0.703,1.851,0.703,2.556,0c0.823-0.825,2.166-0.825,2.989,0
				c0.705,0.703,1.851,0.703,2.555,0c0.029-0.029,0.063-0.051,0.094-0.078c0.094-0.241,0.174-0.493,0.232-0.757
				C101.877,78.017,101.835,78.03,101.803,78.06z"/>
			<path fill="#010101" d="M96.041,79.801c0.824-0.824,2.167-0.824,2.989,0c0.465,0.464,1.116,0.591,1.711,0.444
				c0.25-0.267,0.468-0.566,0.652-0.894c-0.812,0.489-1.881,0.386-2.58-0.311c-0.706-0.705-1.852-0.705-2.557,0
				c-0.823,0.823-2.166,0.823-2.988,0c-0.017-0.017-0.038-0.021-0.054-0.036c0.183,0.385,0.406,0.739,0.664,1.056
				C94.57,80.456,95.454,80.389,96.041,79.801z"/>
			<path fill="#010101" d="M96.041,77.843c0.824-0.824,2.167-0.824,2.989,0c0.705,0.704,1.851,0.704,2.556,0
				c0.123-0.122,0.258-0.221,0.399-0.307c0.026-0.197,0.039-0.398,0.044-0.605c-0.075,0.054-0.16,0.083-0.228,0.149
				c-0.823,0.825-2.166,0.825-2.99,0c-0.705-0.702-1.851-0.702-2.555,0c-0.824,0.825-2.167,0.825-2.989,0
				c-0.203-0.202-0.447-0.329-0.702-0.415c0.027,0.231,0.065,0.458,0.111,0.68c0.295,0.101,0.574,0.262,0.807,0.496
				C94.19,78.548,95.337,78.548,96.041,77.843z"/>
			<path fill="#010101" d="M98.814,53.59c-0.706-0.704-1.852-0.704-2.557,0c-0.784,0.785-2.037,0.813-2.865,0.1
				c-0.088,0.121-0.17,0.254-0.253,0.382c0.124,0.08,0.239,0.172,0.346,0.279c0.706,0.704,1.851,0.704,2.556,0
				c0.823-0.824,2.166-0.824,2.99,0c0.704,0.704,1.85,0.704,2.555,0c0.121-0.119,0.253-0.216,0.391-0.301
				c-0.076-0.144-0.16-0.27-0.239-0.406C100.91,54.407,99.616,54.392,98.814,53.59z"/>
			<path fill="#010101" d="M99.03,80.78c0.164,0.162,0.353,0.278,0.55,0.366c0.268-0.143,0.515-0.315,0.747-0.51
				c-0.547,0.005-1.098-0.2-1.515-0.616c-0.705-0.704-1.851-0.704-2.555,0c-0.503,0.502-1.199,0.694-1.853,0.583
				c0.27,0.234,0.569,0.437,0.898,0.6c0.269-0.084,0.524-0.211,0.738-0.424C96.865,79.958,98.208,79.958,99.03,80.78z"/>
			<path fill="#010101" d="M98.814,80.997c-0.706-0.702-1.852-0.702-2.557,0c-0.163,0.165-0.349,0.285-0.545,0.385
				c0.517,0.191,1.097,0.299,1.75,0.298c0.623-0.002,1.22-0.131,1.768-0.367C99.082,81.226,98.94,81.124,98.814,80.997z"/>
			<path fill="#010101" d="M99.03,51.415c0.374,0.372,0.868,0.535,1.357,0.512c-0.683-0.615-1.442-0.997-2.242-1.044
				c-0.013,0-0.024,0.001-0.037,0.001C98.445,50.978,98.766,51.15,99.03,51.415z"/>
			<path fill="#010101" d="M93.486,68.054c0.705,0.705,1.85,0.705,2.555,0c0.824-0.824,2.167-0.824,2.989,0
				c0.622,0.621,1.567,0.662,2.271,0.19c0.091-0.254,0.194-0.517,0.309-0.792c-0.828,0.652-2.032,0.606-2.795-0.158
				c-0.706-0.704-1.852-0.704-2.557,0c-0.823,0.824-2.166,0.824-2.988,0c-0.436-0.435-1.033-0.566-1.594-0.466
				c0.039,0.208,0.078,0.42,0.12,0.627C92.4,67.399,93.025,67.592,93.486,68.054z"/>
			<path fill="#010101" d="M96.041,76.864c0.824-0.824,2.167-0.824,2.989,0c0.705,0.704,1.851,0.704,2.556,0
				c0.134-0.134,0.286-0.24,0.445-0.331c-0.009-0.18-0.03-0.361-0.055-0.544c-0.056,0.042-0.123,0.064-0.174,0.115
				c-0.823,0.824-2.166,0.824-2.989,0c-0.705-0.705-1.851-0.705-2.556,0c-0.824,0.824-2.166,0.824-2.989,0
				c-0.22-0.22-0.488-0.346-0.767-0.429c0.005,0.22,0.015,0.438,0.035,0.651c0.346,0.094,0.676,0.268,0.948,0.539
				C94.19,77.568,95.337,77.568,96.041,76.864z"/>
			<path fill="#010101" d="M93.486,66.098c0.705,0.702,1.85,0.702,2.555,0c0.824-0.826,2.167-0.826,2.989,0
				c0.705,0.702,1.851,0.702,2.556,0c0.231-0.233,0.506-0.393,0.797-0.494c0.093-0.239,0.193-0.475,0.273-0.715
				c-0.312,0.077-0.61,0.204-0.854,0.446c-0.823,0.825-2.166,0.825-2.988,0c-0.706-0.703-1.852-0.703-2.557,0
				c-0.823,0.825-2.166,0.825-2.988,0c-0.523-0.522-1.288-0.652-1.936-0.4c0.033,0.211,0.071,0.417,0.108,0.625
				C92.148,65.371,92.934,65.544,93.486,66.098z"/>
			<path fill="#010101" d="M98.814,55.547c-0.706-0.704-1.852-0.704-2.557,0c-0.823,0.824-2.166,0.824-2.988,0
				c-0.211-0.209-0.464-0.336-0.73-0.42c-0.097,0.193-0.196,0.384-0.285,0.589c0.45,0.056,0.887,0.249,1.231,0.593
				c0.705,0.704,1.85,0.704,2.555,0c0.824-0.823,2.167-0.823,2.989,0c0.705,0.704,1.851,0.704,2.556,0
				c0.307-0.307,0.685-0.5,1.082-0.577c-0.066-0.201-0.13-0.401-0.204-0.591c-0.241,0.087-0.468,0.215-0.66,0.408
				C100.98,56.371,99.637,56.371,98.814,55.547z"/>
			<path fill="#010101" d="M96.041,75.885c0.824-0.824,2.167-0.824,2.989,0c0.705,0.705,1.851,0.705,2.556,0
				c0.101-0.102,0.21-0.19,0.326-0.266c-0.031-0.165-0.061-0.329-0.107-0.495c-0.001,0-0.001,0-0.002,0
				c-0.823,0.824-2.166,0.824-2.988,0c-0.706-0.703-1.852-0.703-2.557,0c-0.823,0.824-2.166,0.824-2.988,0
				c-0.216-0.214-0.478-0.341-0.749-0.425c-0.014,0.213-0.023,0.425-0.025,0.637c0.362,0.089,0.707,0.267,0.991,0.55
				C94.19,76.59,95.337,76.59,96.041,75.885z"/>
			<path fill="#010101" d="M93.486,70.013c0.705,0.703,1.85,0.703,2.555,0c0.824-0.826,2.167-0.826,2.989,0
				c0.481,0.478,1.158,0.606,1.77,0.432c0.017-0.222,0.046-0.444,0.085-0.666c-0.713,0.203-1.511,0.031-2.07-0.528
				c-0.706-0.704-1.852-0.704-2.557,0c-0.823,0.824-2.166,0.824-2.988,0c-0.339-0.338-0.783-0.507-1.229-0.518
				c0.043,0.226,0.082,0.452,0.123,0.677C92.645,69.449,93.117,69.645,93.486,70.013z"/>
		</g>
	</g>
	<path fill="#FFFFFF" d="M97.462,81.68c0,0-3.62,0.139-4.505-3.308c-0.652-2.309-0.38-3.327-0.406-4.646
		c0,0,1.557-0.175,1.854,0.593c0.296,0.767-0.049,2.54,1.459,4.349c1.508,1.81,2.685,1.102,3.168,0.156
		c0.483-0.946,0.756-1.829,0.715-3.478c-0.041-1.649,1.808-1.036,1.956-0.534c0.149,0.502,0.685,1.94,0.062,3.701
		C101.143,80.272,99.363,81.679,97.462,81.68z"/>
	<path fill="#FFFFFF" d="M114.235,76.833c0,0,3.621,0.139,4.505-3.308c0.652-2.308,0.381-3.327,0.407-4.645
		c0,0-1.556-0.175-1.854,0.592c-0.296,0.768,0.049,2.54-1.459,4.35c-1.509,1.809-2.685,1.101-3.168,0.155
		c-0.484-0.946-0.757-1.828-0.716-3.479c0.041-1.65-1.808-1.036-1.956-0.534c-0.149,0.502-0.685,1.941-0.062,3.701
		C110.554,75.427,112.333,76.833,114.235,76.833z"/>
</g>
<g>
	<g>
		<path fill="#FFFFFF" d="M73.71,64.323c-0.705-0.704-1.851-0.704-2.556,0c-0.559,0.561-1.357,0.73-2.07,0.528
			c0.04,0.22,0.07,0.444,0.085,0.666c0.608,0.174,1.287,0.047,1.769-0.432c0.823-0.825,2.165-0.825,2.989,0
			c0.705,0.702,1.851,0.702,2.555,0c0.369-0.369,0.841-0.563,1.323-0.602c0.041-0.227,0.078-0.454,0.124-0.678
			c-0.447,0.011-0.89,0.18-1.229,0.518C75.875,65.147,74.533,65.147,73.71,64.323z"/>
		<path fill="#FFFFFF" d="M76.7,58.45c-0.824,0.824-2.166,0.824-2.989,0c-0.705-0.703-1.851-0.703-2.556,0
			c-0.823,0.824-2.165,0.824-2.988,0c-0.371-0.37-0.862-0.534-1.348-0.514c0.039,0.221,0.072,0.441,0.121,0.663
			c0.523,0.012,1.046,0.214,1.442,0.614c0.706,0.703,1.852,0.703,2.557,0c0.823-0.824,2.166-0.824,2.988,0
			c0.706,0.703,1.851,0.703,2.556,0c0.624-0.624,1.543-0.774,2.311-0.454c0.019-0.193,0.041-0.387,0.055-0.576
			C78.16,57.796,77.284,57.865,76.7,58.45z"/>
		<path fill="#FFFFFF" d="M70.938,70.957c0.823-0.824,2.165-0.824,2.989,0c0.705,0.703,1.851,0.703,2.555,0
			c0.283-0.282,0.629-0.463,0.991-0.55c-0.001-0.211-0.011-0.424-0.025-0.637c-0.272,0.084-0.535,0.209-0.749,0.426
			c-0.824,0.823-2.166,0.823-2.989,0c-0.705-0.705-1.851-0.705-2.556,0c-0.823,0.823-2.165,0.823-2.988,0
			c-0.001,0-0.001,0-0.003-0.002c-0.045,0.168-0.075,0.332-0.107,0.496c0.116,0.077,0.226,0.165,0.326,0.266
			C69.087,71.662,70.233,71.662,70.938,70.957z"/>
		<path fill="#FFFFFF" d="M76.7,60.407c-0.824,0.824-2.166,0.824-2.989,0c-0.705-0.702-1.851-0.702-2.556,0
			c-0.823,0.824-2.165,0.824-2.988,0c-0.244-0.242-0.542-0.369-0.854-0.445c0.079,0.24,0.181,0.475,0.274,0.715
			c0.292,0.101,0.565,0.26,0.797,0.492c0.706,0.704,1.851,0.704,2.556,0c0.824-0.824,2.166-0.824,2.99,0
			c0.705,0.704,1.851,0.704,2.555,0c0.551-0.553,1.338-0.725,2.046-0.535c0.036-0.208,0.074-0.414,0.106-0.625
			C77.987,59.756,77.224,59.886,76.7,60.407z"/>
		<path fill="#FFFFFF" d="M76.7,62.365c-0.824,0.824-2.166,0.824-2.989,0c-0.705-0.704-1.851-0.704-2.556,0
			c-0.762,0.764-1.967,0.81-2.796,0.158c0.115,0.274,0.218,0.538,0.311,0.792c0.7,0.472,1.648,0.43,2.27-0.19
			c0.823-0.824,2.165-0.824,2.989,0c0.705,0.704,1.851,0.704,2.555,0c0.462-0.462,1.086-0.654,1.691-0.598
			c0.04-0.207,0.082-0.419,0.121-0.629C77.732,61.798,77.132,61.932,76.7,62.365z"/>
		<path fill="#FFFFFF" d="M70.938,73.895c0.823-0.826,2.165-0.826,2.989,0c0.705,0.703,1.851,0.703,2.555,0
			c0.15-0.152,0.321-0.264,0.497-0.359c0.086-0.236,0.159-0.485,0.222-0.736c-0.179,0.086-0.354,0.185-0.501,0.332
			c-0.824,0.825-2.166,0.825-2.989,0c-0.705-0.703-1.851-0.703-2.556,0c-0.823,0.825-2.165,0.825-2.988,0
			c-0.032-0.032-0.075-0.043-0.109-0.072c0.058,0.263,0.137,0.515,0.231,0.757c0.031,0.027,0.065,0.048,0.094,0.076
			C69.087,74.598,70.233,74.598,70.938,73.895z"/>
		<path fill="#FFFFFF" d="M69.291,47.286C69.143,47.44,69,47.604,68.861,47.78c0.676,0.338,1.512,0.248,2.077-0.316
			c0.824-0.824,2.166-0.824,2.99,0c0.517,0.517,1.271,0.647,1.915,0.404c-0.183-0.199-0.372-0.385-0.565-0.554
			c-0.566,0.02-1.136-0.181-1.565-0.611c-0.706-0.704-1.851-0.704-2.556,0C70.649,47.209,69.946,47.402,69.291,47.286z"/>
		<path fill="#FFFFFF" d="M70.938,69.979c0.823-0.824,2.165-0.824,2.989,0c0.705,0.703,1.851,0.703,2.555,0
			c0.274-0.273,0.607-0.447,0.957-0.541c-0.012-0.217-0.018-0.429-0.021-0.641c-0.262,0.086-0.511,0.212-0.718,0.419
			c-0.824,0.825-2.167,0.825-2.99,0c-0.705-0.703-1.851-0.703-2.556,0c-0.746,0.746-1.912,0.81-2.737,0.207
			c-0.003,0.002-0.003,0.005-0.005,0.01c-0.057,0.155-0.099,0.301-0.146,0.45c0.038,0.034,0.079,0.061,0.116,0.096
			C69.087,70.682,70.233,70.682,70.938,69.979z"/>
		<path fill="#FFFFFF" d="M77.431,67.817c-0.265,0.083-0.521,0.21-0.731,0.421c-0.824,0.824-2.167,0.824-2.99,0
			c-0.705-0.704-1.851-0.704-2.556,0c-0.665,0.665-1.665,0.783-2.458,0.376c-0.052,0.157-0.106,0.318-0.167,0.483
			c0.71,0.578,1.748,0.563,2.409-0.098c0.823-0.824,2.166-0.824,2.988,0c0.706,0.705,1.851,0.705,2.556,0
			c0.267-0.266,0.587-0.435,0.926-0.532C77.41,68.247,77.423,68.034,77.431,67.817z"/>
		<path fill="#FFFFFF" d="M76.7,66.28c-0.824,0.825-2.166,0.825-2.989,0c-0.705-0.702-1.851-0.702-2.556,0
			c-0.548,0.55-1.328,0.725-2.031,0.539c-0.025,0.203-0.061,0.411-0.105,0.624c0.644,0.247,1.401,0.115,1.921-0.402
			c0.824-0.824,2.166-0.824,2.99,0c0.705,0.703,1.851,0.703,2.556,0c0.295-0.297,0.661-0.483,1.043-0.565
			c0.024-0.216,0.043-0.435,0.072-0.649C77.27,65.899,76.954,66.027,76.7,66.28z"/>
		<path fill="#FFFFFF" d="M76.7,67.259c-0.824,0.824-2.166,0.824-2.989,0c-0.705-0.704-1.851-0.704-2.556,0
			c-0.594,0.597-1.462,0.756-2.209,0.488c-0.045,0.183-0.081,0.361-0.139,0.553c0.685,0.375,1.552,0.301,2.132-0.279
			c0.823-0.825,2.165-0.825,2.989,0c0.705,0.703,1.851,0.703,2.555,0c0.276-0.277,0.612-0.45,0.961-0.542
			c0.014-0.219,0.028-0.437,0.048-0.652C77.203,66.907,76.925,67.034,76.7,67.259z"/>
		<path fill="#FFFFFF" d="M73.734,46.328c0.065,0.052,0.133,0.098,0.193,0.156c0.249,0.249,0.56,0.378,0.879,0.451
			C74.459,46.684,74.101,46.487,73.734,46.328z"/>
		<path fill="#FFFFFF" d="M73.71,48.662c-0.705-0.704-1.851-0.704-2.556,0c-0.801,0.803-2.096,0.818-2.924,0.053
			c-0.079,0.135-0.164,0.262-0.237,0.407c0.137,0.085,0.271,0.182,0.39,0.301c0.705,0.704,1.851,0.704,2.556,0
			c0.823-0.824,2.165-0.824,2.989,0c0.705,0.704,1.851,0.704,2.555,0c0.108-0.107,0.225-0.199,0.347-0.279
			c-0.083-0.128-0.165-0.259-0.253-0.383C75.75,49.474,74.495,49.447,73.71,48.662z"/>
		<path fill="#FFFFFF" d="M70.938,74.872c0.823-0.822,2.165-0.822,2.989,0c0.589,0.589,1.471,0.656,2.162,0.262
			c0.259-0.318,0.48-0.671,0.664-1.058c-0.017,0.014-0.036,0.02-0.054,0.035c-0.824,0.825-2.166,0.825-2.989,0
			c-0.705-0.703-1.851-0.703-2.556,0c-0.697,0.699-1.769,0.799-2.58,0.313c0.184,0.327,0.402,0.626,0.651,0.893
			C69.823,75.464,70.474,75.336,70.938,74.872z"/>
		<path fill="#FFFFFF" d="M70.938,72.914c0.823-0.824,2.165-0.824,2.989,0c0.705,0.704,1.851,0.704,2.555,0
			c0.235-0.234,0.514-0.393,0.807-0.494c0.045-0.224,0.084-0.451,0.112-0.681c-0.255,0.085-0.498,0.212-0.701,0.416
			c-0.824,0.823-2.166,0.823-2.989,0c-0.705-0.703-1.851-0.703-2.556,0c-0.823,0.823-2.165,0.823-2.988,0
			c-0.067-0.067-0.153-0.097-0.229-0.151c0.005,0.207,0.021,0.409,0.045,0.606c0.142,0.084,0.277,0.183,0.398,0.305
			C69.087,73.619,70.233,73.619,70.938,72.914z"/>
		<path fill="#FFFFFF" d="M76.7,56.493c-0.824,0.824-2.166,0.824-2.989,0c-0.705-0.703-1.851-0.703-2.556,0
			c-0.823,0.824-2.165,0.824-2.988,0c-0.429-0.427-1.013-0.562-1.57-0.473c0.01,0.212,0.036,0.426,0.056,0.638
			c0.618-0.07,1.258,0.123,1.729,0.594c0.706,0.704,1.852,0.704,2.557,0c0.823-0.824,2.166-0.824,2.988,0
			c0.706,0.704,1.851,0.704,2.556,0c0.653-0.654,1.63-0.78,2.418-0.396c0-0.209-0.016-0.409-0.023-0.615
			C78.184,55.835,77.292,55.9,76.7,56.493z"/>
		<path fill="#FFFFFF" d="M73.71,76.068c-0.705-0.702-1.851-0.702-2.556,0c-0.127,0.127-0.268,0.229-0.415,0.316
			c0.547,0.235,1.144,0.366,1.767,0.367c0.654,0.001,1.234-0.107,1.75-0.298C74.06,76.354,73.874,76.233,73.71,76.068z"/>
		<path fill="#FFFFFF" d="M70.938,46.487c0.265-0.265,0.584-0.437,0.923-0.53c-0.014,0-0.025-0.001-0.037-0.001
			c-0.8,0.048-1.56,0.429-2.24,1.044C70.07,47.021,70.565,46.858,70.938,46.487z"/>
		<path fill="#FFFFFF" d="M73.927,75.852c0.214,0.212,0.469,0.34,0.738,0.424c0.33-0.164,0.629-0.366,0.898-0.601
			c-0.655,0.111-1.35-0.08-1.854-0.583c-0.705-0.705-1.851-0.705-2.556,0c-0.417,0.416-0.965,0.62-1.514,0.615
			c0.231,0.195,0.481,0.368,0.746,0.511c0.197-0.088,0.387-0.205,0.55-0.366C71.761,75.028,73.104,75.028,73.927,75.852z"/>
		<path fill="#FFFFFF" d="M76.7,54.535c-0.824,0.824-2.166,0.824-2.989,0c-0.705-0.704-1.851-0.704-2.556,0
			c-0.823,0.824-2.165,0.824-2.988,0c-0.416-0.414-0.979-0.554-1.519-0.482c-0.018,0.217-0.042,0.431-0.051,0.651
			c0.636-0.086,1.3,0.104,1.786,0.591c0.705,0.704,1.851,0.704,2.556,0c0.823-0.824,2.165-0.824,2.989,0
			c0.705,0.704,1.851,0.704,2.555,0c0.617-0.617,1.525-0.771,2.288-0.464c-0.027-0.224-0.049-0.455-0.082-0.672
			C78.028,53.877,77.236,53.998,76.7,54.535z"/>
		<path fill="#FFFFFF" d="M73.71,50.619c-0.705-0.703-1.851-0.703-2.556,0c-0.823,0.824-2.165,0.824-2.988,0
			c-0.193-0.192-0.422-0.32-0.661-0.407c-0.074,0.191-0.139,0.391-0.204,0.591c0.397,0.078,0.774,0.27,1.082,0.577
			c0.705,0.704,1.851,0.704,2.556,0c0.823-0.824,2.165-0.824,2.989,0c0.705,0.704,1.851,0.704,2.555,0
			c0.344-0.346,0.782-0.538,1.232-0.593c-0.089-0.206-0.187-0.396-0.286-0.589c-0.266,0.083-0.518,0.21-0.729,0.421
			C75.875,51.443,74.533,51.443,73.71,50.619z"/>
		<path fill="#FFFFFF" d="M70.938,71.937c0.823-0.824,2.165-0.824,2.989,0c0.705,0.703,1.851,0.703,2.555,0
			c0.273-0.272,0.603-0.446,0.949-0.539c0.021-0.215,0.031-0.432,0.035-0.651c-0.28,0.083-0.544,0.209-0.766,0.429
			c-0.824,0.823-2.166,0.823-2.989,0c-0.705-0.705-1.851-0.705-2.556,0c-0.823,0.823-2.165,0.823-2.988,0
			c-0.052-0.053-0.119-0.073-0.173-0.116c-0.027,0.184-0.048,0.368-0.055,0.544c0.156,0.09,0.31,0.195,0.443,0.331
			C69.087,72.64,70.233,72.64,70.938,71.937z"/>
		<path fill="#FFFFFF" d="M76.7,52.577c-0.824,0.823-2.166,0.823-2.989,0c-0.705-0.703-1.851-0.703-2.556,0
			c-0.823,0.823-2.165,0.823-2.988,0c-0.337-0.335-0.775-0.5-1.217-0.517c-0.049,0.218-0.089,0.441-0.128,0.665
			c0.563-0.018,1.133,0.183,1.563,0.613c0.706,0.704,1.852,0.704,2.556,0c0.824-0.824,2.166-0.824,2.99,0
			c0.705,0.704,1.851,0.704,2.556,0c0.517-0.516,1.236-0.708,1.903-0.578c-0.059-0.23-0.126-0.45-0.195-0.669
			C77.659,52.026,77.107,52.168,76.7,52.577z"/>
		<path fill="#FFFFFF" d="M51.748,60.224c0.705,0.704,1.851,0.704,2.556,0c0.823-0.824,2.166-0.824,2.989,0
			c0.705,0.704,1.85,0.704,2.556,0c0.487-0.486,1.152-0.677,1.785-0.59c-0.008-0.221-0.032-0.437-0.051-0.652
			c-0.54-0.073-1.104,0.068-1.517,0.482c-0.823,0.824-2.167,0.824-2.989,0c-0.706-0.704-1.851-0.704-2.556,0
			c-0.822,0.824-2.166,0.824-2.988,0c-0.54-0.537-1.329-0.658-1.989-0.377c-0.034,0.218-0.055,0.448-0.081,0.672
			C50.226,59.452,51.132,59.606,51.748,60.224z"/>
		<path fill="#FFFFFF" d="M51.748,58.267c0.705,0.703,1.851,0.703,2.556,0c0.823-0.824,2.166-0.824,2.989,0
			c0.705,0.703,1.85,0.703,2.556,0c0.43-0.43,1-0.63,1.564-0.612c-0.04-0.224-0.08-0.447-0.129-0.665
			c-0.441,0.017-0.88,0.179-1.217,0.517c-0.823,0.824-2.166,0.824-2.989,0c-0.705-0.704-1.85-0.704-2.555,0
			c-0.823,0.824-2.166,0.824-2.989,0c-0.408-0.408-0.959-0.55-1.492-0.487c-0.069,0.22-0.137,0.439-0.195,0.669
			C50.513,57.557,51.232,57.75,51.748,58.267z"/>
		<path fill="#FFFFFF" d="M51.748,74.907c0.705,0.705,1.851,0.705,2.556,0c0.823-0.824,2.166-0.824,2.989,0
			c0.705,0.705,1.85,0.705,2.556,0c0.036-0.034,0.077-0.061,0.116-0.095c-0.048-0.149-0.087-0.296-0.147-0.451
			c0-0.002-0.002-0.007-0.004-0.011c-0.825,0.604-1.992,0.541-2.737-0.206c-0.706-0.703-1.851-0.703-2.556,0
			c-0.822,0.825-2.166,0.825-2.988,0c-0.208-0.207-0.458-0.333-0.719-0.418c-0.003,0.209-0.009,0.423-0.021,0.64
			C51.143,74.46,51.475,74.633,51.748,74.907z"/>
		<path fill="#FFFFFF" d="M51.748,62.181c0.705,0.704,1.851,0.704,2.556,0c0.823-0.824,2.166-0.824,2.989,0
			c0.705,0.704,1.85,0.704,2.556,0c0.472-0.472,1.113-0.665,1.731-0.595c0.019-0.211,0.044-0.427,0.054-0.637
			c-0.556-0.091-1.141,0.044-1.568,0.472c-0.824,0.824-2.167,0.824-2.989,0c-0.706-0.703-1.851-0.703-2.557,0
			c-0.823,0.824-2.166,0.824-2.989,0c-0.593-0.592-1.485-0.656-2.178-0.251c-0.007,0.206-0.023,0.406-0.023,0.615
			C50.12,61.401,51.097,61.529,51.748,62.181z"/>
		<path fill="#FFFFFF" d="M51.748,64.14c0.705,0.703,1.851,0.703,2.556,0c0.823-0.824,2.166-0.824,2.989,0
			c0.705,0.703,1.85,0.703,2.556,0c0.398-0.399,0.919-0.6,1.443-0.614c0.049-0.22,0.082-0.441,0.122-0.663
			c-0.486-0.019-0.978,0.144-1.348,0.514c-0.824,0.823-2.167,0.823-2.989,0c-0.706-0.704-1.851-0.704-2.557,0
			c-0.823,0.823-2.166,0.823-2.989,0c-0.585-0.584-1.461-0.655-2.149-0.271c0.014,0.189,0.035,0.384,0.055,0.578
			C50.206,63.365,51.125,63.516,51.748,64.14z"/>
		<path fill="#FFFFFF" d="M53.424,51.865c0.32-0.073,0.631-0.202,0.88-0.451c0.06-0.06,0.128-0.106,0.192-0.156
			C54.131,51.416,53.771,51.612,53.424,51.865z"/>
		<path fill="#FFFFFF" d="M50.823,73.396c0.338,0.097,0.66,0.266,0.925,0.532c0.705,0.705,1.851,0.705,2.556,0
			c0.823-0.824,2.166-0.824,2.989,0c0.662,0.661,1.699,0.677,2.409,0.098c-0.062-0.165-0.116-0.326-0.167-0.482
			c-0.795,0.409-1.793,0.288-2.458-0.376c-0.706-0.705-1.851-0.705-2.557,0c-0.823,0.824-2.166,0.824-2.989,0
			c-0.21-0.21-0.466-0.339-0.732-0.421C50.809,72.961,50.822,73.176,50.823,73.396z"/>
		<path fill="#FFFFFF" d="M52.388,52.797c0.644,0.243,1.399,0.112,1.917-0.405c0.823-0.823,2.166-0.823,2.989,0
			c0.564,0.564,1.401,0.655,2.077,0.317c-0.138-0.177-0.282-0.34-0.43-0.495c-0.656,0.116-1.359-0.076-1.863-0.583
			c-0.706-0.703-1.851-0.703-2.556,0c-0.43,0.43-1,0.63-1.566,0.611C52.76,52.414,52.573,52.599,52.388,52.797z"/>
		<path fill="#FFFFFF" d="M51.748,72.949c0.705,0.704,1.851,0.704,2.556,0c0.823-0.824,2.166-0.824,2.989,0
			c0.582,0.581,1.448,0.654,2.132,0.279c-0.058-0.192-0.094-0.371-0.138-0.554c-0.747,0.269-1.615,0.111-2.21-0.487
			c-0.706-0.704-1.851-0.704-2.556,0c-0.822,0.824-2.166,0.824-2.988,0c-0.227-0.227-0.503-0.353-0.792-0.434
			c0.02,0.216,0.033,0.436,0.047,0.654C51.139,72.499,51.474,72.672,51.748,72.949z"/>
		<path fill="#FFFFFF" d="M51.748,71.971c0.705,0.704,1.851,0.704,2.556,0c0.823-0.823,2.166-0.823,2.989,0
			c0.52,0.517,1.275,0.648,1.921,0.403c-0.044-0.213-0.079-0.423-0.106-0.623c-0.702,0.183-1.482,0.01-2.031-0.54
			c-0.705-0.704-1.85-0.704-2.555,0c-0.823,0.824-2.166,0.824-2.989,0c-0.253-0.253-0.571-0.384-0.898-0.454
			c0.027,0.215,0.048,0.432,0.071,0.649C51.088,71.488,51.453,71.674,51.748,71.971z"/>
		<path fill="#FFFFFF" d="M60.066,78.06c-0.824,0.826-2.167,0.826-2.989,0c-0.706-0.702-1.851-0.702-2.557,0
			c-0.823,0.826-2.166,0.826-2.989,0c-0.148-0.147-0.324-0.245-0.501-0.331c0.063,0.252,0.133,0.499,0.222,0.736
			c0.177,0.096,0.347,0.208,0.497,0.359c0.705,0.703,1.851,0.703,2.556,0c0.823-0.825,2.166-0.825,2.989,0
			c0.705,0.703,1.851,0.703,2.556,0c0.029-0.029,0.063-0.051,0.093-0.078c0.094-0.241,0.174-0.493,0.232-0.757
			C60.14,78.017,60.098,78.03,60.066,78.06z"/>
		<path fill="#FFFFFF" d="M54.304,79.8c0.823-0.823,2.166-0.823,2.989,0c0.464,0.465,1.115,0.592,1.71,0.445
			c0.25-0.266,0.469-0.566,0.653-0.894c-0.812,0.489-1.881,0.387-2.58-0.311c-0.706-0.705-1.851-0.705-2.557,0
			c-0.823,0.823-2.166,0.823-2.989,0c-0.017-0.017-0.037-0.022-0.054-0.036c0.184,0.384,0.407,0.738,0.664,1.055
			C52.833,80.457,53.716,80.389,54.304,79.8z"/>
		<path fill="#FFFFFF" d="M54.304,77.843c0.823-0.824,2.166-0.824,2.989,0c0.705,0.704,1.85,0.704,2.556,0
			c0.122-0.122,0.258-0.22,0.399-0.306c0.026-0.197,0.04-0.398,0.044-0.604c-0.075,0.053-0.16,0.083-0.228,0.148
			c-0.823,0.825-2.166,0.825-2.989,0c-0.705-0.702-1.851-0.702-2.556,0c-0.823,0.825-2.166,0.825-2.989,0
			c-0.203-0.202-0.447-0.33-0.702-0.416c0.027,0.232,0.065,0.458,0.111,0.681c0.294,0.101,0.573,0.262,0.807,0.496
			C52.453,78.548,53.6,78.548,54.304,77.843z"/>
		<path fill="#FFFFFF" d="M57.077,53.59c-0.706-0.704-1.851-0.704-2.557,0c-0.784,0.785-2.037,0.813-2.865,0.1
			c-0.088,0.122-0.17,0.254-0.253,0.382c0.124,0.079,0.24,0.172,0.347,0.279c0.705,0.704,1.851,0.704,2.556,0
			c0.823-0.824,2.166-0.824,2.989,0c0.705,0.704,1.851,0.704,2.556,0c0.12-0.12,0.253-0.217,0.391-0.301
			c-0.075-0.144-0.16-0.271-0.24-0.407C59.174,54.408,57.879,54.393,57.077,53.59z"/>
		<path fill="#FFFFFF" d="M57.293,80.78c0.163,0.162,0.353,0.278,0.55,0.366c0.267-0.143,0.515-0.315,0.746-0.51
			c-0.547,0.005-1.097-0.2-1.514-0.616c-0.705-0.704-1.851-0.704-2.556,0c-0.502,0.502-1.199,0.694-1.853,0.583
			c0.27,0.234,0.569,0.437,0.898,0.601c0.269-0.084,0.525-0.212,0.738-0.424C55.127,79.958,56.47,79.958,57.293,80.78z"/>
		<path fill="#FFFFFF" d="M57.077,80.997c-0.706-0.703-1.851-0.703-2.557,0c-0.164,0.164-0.35,0.285-0.545,0.385
			c0.517,0.191,1.097,0.299,1.749,0.298c0.624-0.001,1.22-0.132,1.768-0.367C57.345,81.226,57.204,81.124,57.077,80.997z"/>
		<path fill="#FFFFFF" d="M57.293,51.416c0.373,0.373,0.868,0.535,1.357,0.513c-0.684-0.615-1.443-0.997-2.242-1.044
			c-0.013,0-0.025,0.001-0.037,0.001C56.708,50.979,57.029,51.151,57.293,51.416z"/>
		<path fill="#FFFFFF" d="M51.748,68.055c0.705,0.706,1.851,0.706,2.556,0c0.823-0.823,2.166-0.823,2.989,0
			c0.621,0.621,1.567,0.662,2.27,0.19c0.091-0.254,0.194-0.518,0.309-0.792c-0.828,0.652-2.032,0.606-2.795-0.158
			c-0.706-0.704-1.851-0.704-2.557,0c-0.823,0.824-2.166,0.824-2.989,0c-0.435-0.434-1.032-0.566-1.594-0.466
			c0.04,0.208,0.079,0.42,0.121,0.627C50.663,67.4,51.288,67.593,51.748,68.055z"/>
		<path fill="#FFFFFF" d="M54.304,76.864c0.823-0.824,2.166-0.824,2.989,0c0.705,0.704,1.85,0.704,2.556,0
			c0.134-0.134,0.287-0.241,0.445-0.331c-0.008-0.18-0.03-0.361-0.055-0.545c-0.055,0.043-0.123,0.065-0.174,0.115
			c-0.823,0.824-2.166,0.824-2.99,0c-0.704-0.705-1.851-0.705-2.556,0c-0.823,0.824-2.166,0.824-2.989,0
			c-0.221-0.219-0.489-0.346-0.767-0.429c0.004,0.22,0.015,0.437,0.034,0.651c0.347,0.094,0.677,0.268,0.949,0.538
			C52.453,77.568,53.6,77.568,54.304,76.864z"/>
		<path fill="#FFFFFF" d="M51.748,66.098c0.705,0.703,1.851,0.703,2.556,0c0.823-0.826,2.166-0.826,2.989,0
			c0.705,0.703,1.85,0.703,2.556,0c0.232-0.232,0.506-0.393,0.797-0.493c0.092-0.239,0.193-0.474,0.273-0.715
			c-0.312,0.077-0.611,0.204-0.854,0.446c-0.824,0.825-2.167,0.825-2.989,0c-0.706-0.702-1.851-0.702-2.557,0
			c-0.823,0.825-2.166,0.825-2.989,0c-0.523-0.522-1.288-0.651-1.936-0.399c0.034,0.211,0.072,0.417,0.108,0.625
			C50.41,65.372,51.197,65.544,51.748,66.098z"/>
		<path fill="#FFFFFF" d="M57.077,55.548c-0.706-0.704-1.851-0.704-2.557,0c-0.823,0.824-2.166,0.824-2.989,0
			c-0.21-0.209-0.463-0.336-0.729-0.421c-0.097,0.192-0.196,0.384-0.285,0.588c0.45,0.057,0.887,0.25,1.23,0.594
			c0.705,0.703,1.851,0.703,2.556,0c0.823-0.824,2.166-0.824,2.989,0c0.705,0.703,1.85,0.703,2.556,0
			c0.307-0.307,0.685-0.5,1.082-0.577c-0.066-0.201-0.131-0.401-0.205-0.591c-0.24,0.088-0.468,0.215-0.66,0.408
			C59.242,56.372,57.899,56.372,57.077,55.548z"/>
		<path fill="#FFFFFF" d="M54.304,75.885c0.823-0.824,2.166-0.824,2.989,0c0.705,0.704,1.85,0.704,2.556,0
			c0.102-0.103,0.21-0.19,0.326-0.266c-0.032-0.164-0.061-0.329-0.106-0.495c-0.001,0-0.001,0-0.002,0
			c-0.824,0.825-2.167,0.825-2.989,0c-0.706-0.702-1.851-0.702-2.557,0c-0.823,0.825-2.166,0.825-2.989,0
			c-0.216-0.214-0.477-0.341-0.75-0.425c-0.013,0.213-0.022,0.425-0.024,0.637c0.362,0.089,0.707,0.267,0.99,0.55
			C52.453,76.59,53.6,76.59,54.304,75.885z"/>
		<path fill="#FFFFFF" d="M51.748,70.013c0.705,0.703,1.851,0.703,2.556,0c0.823-0.825,2.166-0.825,2.989,0
			c0.48,0.479,1.157,0.606,1.77,0.432c0.016-0.221,0.045-0.444,0.085-0.665c-0.713,0.202-1.512,0.031-2.071-0.529
			c-0.706-0.704-1.851-0.704-2.557,0c-0.823,0.824-2.166,0.824-2.989,0c-0.339-0.338-0.783-0.506-1.228-0.518
			c0.042,0.226,0.082,0.452,0.123,0.677C50.908,69.45,51.379,69.646,51.748,70.013z"/>
	</g>
</g>
</svg>
