<?xml version="1.0" encoding="utf-8"?>
<!-- Generator: Adobe Illustrator 19.1.0, SVG Export Plug-In . SVG Version: 6.00 Build 0)  -->
<svg version="1.1" id="Capa_1" xmlns="http://www.w3.org/2000/svg" xmlns:xlink="http://www.w3.org/1999/xlink" x="0px" y="0px"
	 viewBox="-61 548.8 123 108.1" style="enable-background:new -61 548.8 123 108.1;" xml:space="preserve">
<style type="text/css">
	.st0{fill:#FFFFFF;}
</style>
<g>
	<path class="st0" d="M52.1,558.8c-6.4-6.4-15-10-24.1-10s-17.7,3.5-24.1,10l-3.4,3.4l-3.4-3.4c-6.4-6.4-15-10-24.1-10
		c-9.1,0-17.6,3.5-24,10c-6.4,6.4-10,15-10,24.1c0,9.1,3.6,17.6,10,24.1l49,49c0.7,0.7,1.6,1,2.5,1s1.8-0.3,2.5-1L52,607
		c6.4-6.4,10-15,10-24.1C62,573.8,58.5,565.2,52.1,558.8z M47.1,602L0.5,648.4L-46,601.9c-5.1-5.1-7.9-11.9-7.9-19.1
		s2.8-14,7.9-19.1c5.1-5.1,11.9-7.9,19.1-7.9c7.2,0,14,2.8,19.1,7.9l5.9,5.9c1.4,1.4,3.6,1.4,5,0l5.8-5.8c5.1-5.1,11.9-7.9,19.1-7.9
		c7.2,0,14,2.8,19.1,7.9c5.1,5.1,7.9,11.9,7.9,19.1C55,590.1,52.2,596.9,47.1,602z"/>
</g>
</svg>
