<?xml version="1.0" encoding="utf-8"?>
<!-- Generator: Adobe Illustrator 19.1.0, SVG Export Plug-In . SVG Version: 6.00 Build 0)  -->
<svg version="1.1" id="Calque_1" xmlns="http://www.w3.org/2000/svg" xmlns:xlink="http://www.w3.org/1999/xlink" x="0px" y="0px"
	 viewBox="0 0 478.7 421.7" style="enable-background:new 0 0 478.7 421.7;" xml:space="preserve">
<style type="text/css">
	.st0{fill:#7A7A7A;}
</style>
<g>
	<path class="st0" d="M239.2,421.7c-4.1,0-8.1-1.8-11.1-5L54.6,228.9c-23.5-25.4-36.4-59.1-36.4-94.8C18.1,98.3,31,64.6,54.4,39.2
		C77.8,13.9,108.9,0,141.9,0c33.1,0,64.3,14,87.8,39.4l9.8,10.6l9.6-10.4c23.4-25.4,54.6-39.3,87.7-39.3s64.2,13.9,87.6,39.2v0
		c0,0,0,0,0,0c23.4,25.3,36.2,59,36.2,94.9c0,35.8-12.9,69.5-36.3,94.9L250.3,416.8C247.4,419.9,243.4,421.7,239.2,421.7z M141.9,7
		C110.6,7,81.2,20.2,59,44.2c-22.2,24.1-34.4,56-34.3,89.9c0,33.8,12.3,65.7,34.5,89.8l173.5,187.8c1.7,1.9,4.1,3,6.5,3
		c2.4,0,4.8-1,6.5-2.9l173.9-187.5c22.2-24,34.4-56,34.4-89.9c0.1-34-12.1-65.9-34.3-89.9v0c-22.1-24-51.6-37.2-83-37.2
		c-31.4,0-60.9,13.2-83.1,37.3l-14.2,15.4l-14.4-15.6C202.8,20.3,173.3,7,141.9,7z"/>
</g>
</svg>
