<?xml version="1.0" encoding="utf-8"?>
<!-- Generator: Adobe Illustrator 19.1.0, SVG Export Plug-In . SVG Version: 6.00 Build 0)  -->
<svg version="1.1" id="Capa_1" xmlns="http://www.w3.org/2000/svg" xmlns:xlink="http://www.w3.org/1999/xlink" x="0px" y="0px"
	 viewBox="-61 185.2 471.7 471.7" style="enable-background:new -61 185.2 471.7 471.7;" xml:space="preserve">
<style type="text/css">
	.st0{fill:url(#SVGID_1_);}
</style>
<g>
	<linearGradient id="SVGID_1_" gradientUnits="userSpaceOnUse" x1="38.4664" y1="214.2109" x2="305.4664" y2="485.2109">
		<stop  offset="0" style="stop-color:#BFD100"/>
		<stop  offset="1" style="stop-color:#47D4B7"/>
	</linearGradient>
	<path class="st0" d="M69.4,234.1c31.7,0,61.5,12.4,84,34.9l13.1,13.1l8.5,8.5l8.5-8.5l12.9-12.9c22.4-22.4,52.2-34.8,83.9-34.8
		s61.4,12.3,83.8,34.7c22.4,22.4,34.7,52.2,34.6,83.9c0,31.7-12.4,61.5-34.8,83.9L175.7,624.4c-0.3,0.3-0.7,0.4-1,0.4
		c-0.2,0-0.7-0.1-1-0.5L-14.1,436.5C-36.6,414-49,384.2-49,352.7c-0.1-31.6,12.2-61.4,34.7-83.9C8.1,246.4,37.8,234.1,69.4,234.1"/>
</g>
</svg>
