<?xml version="1.0" encoding="utf-8"?>
<!-- Generator: Adobe Illustrator 16.0.0, SVG Export Plug-In . SVG Version: 6.00 Build 0)  -->
<!DOCTYPE svg PUBLIC "-//W3C//DTD SVG 1.1//EN" "http://www.w3.org/Graphics/SVG/1.1/DTD/svg11.dtd">
<svg version="1.1" id="Calque_1" xmlns="http://www.w3.org/2000/svg" xmlns:xlink="http://www.w3.org/1999/xlink" x="0px" y="0px"
	 width="300px" height="1500px" viewBox="0 0 300 1500" enable-background="new 0 0 300 1500" xml:space="preserve">
<g>
	<g>
		<path fill="none" stroke="#FFFFFF" stroke-width="5" stroke-miterlimit="10" d="M184.949,0c0,0-0.622,0.303-1.778,0.907"/>
		<path fill="none" stroke="#FFFFFF" stroke-width="5" stroke-miterlimit="10" stroke-dasharray="4.0064,2.0032" d="M181.403,1.846
			c-1.192,0.644-2.661,1.455-4.37,2.433"/>
		<path fill="none" stroke="#FFFFFF" stroke-width="5" stroke-miterlimit="10" stroke-dasharray="4.0064,2.0032,4.0064,2.0032" d="
			M176.162,4.78C142.24,24.402,24.299,104.144,77.256,238.744c61.539,156.41,136.232,112.82,179.488,258.974
			S141.358,759.257,105.461,851.564s-30.769,166.666,25.641,261.538s55.478,197.435,32.867,261.538
			c-19.67,55.767-26.109,109.377-27.451,122.379"/>
		<path fill="none" stroke="#FFFFFF" stroke-width="5" stroke-miterlimit="10" d="M136.418,1498.013
			c-0.13,1.302-0.187,1.987-0.187,1.987"/>
	</g>
</g>
</svg>
